ISO-10303-21;
HEADER;
/* Generated by software containing ST-Developer
 * from STEP Tools, Inc. (www.steptools.com) 
 */

FILE_DESCRIPTION(
/* description */ (''),
/* implementation_level */ '2;1');

FILE_NAME(
/* name */ 'keycap.step',
/* time_stamp */ '2025-07-25T18:46:36-05:00',
/* author */ (''),
/* organization */ (''),
/* preprocessor_version */ 'ST-DEVELOPER v20.1',
/* originating_system */ 'Autodesk Translation Framework v14.10.0.0',
/* authorisation */ '');

FILE_SCHEMA (('AUTOMOTIVE_DESIGN { 1 0 10303 214 3 1 1 }'));
ENDSEC;

DATA;
#10=MECHANICAL_DESIGN_GEOMETRIC_PRESENTATION_REPRESENTATION('',(#286,#287),
#1818);
#11=ITEM_DEFINED_TRANSFORMATION($,$,#1039,#1139);
#12=ITEM_DEFINED_TRANSFORMATION($,$,#1043,#1140);
#13=(
REPRESENTATION_RELATIONSHIP($,$,#1832,#1831)
REPRESENTATION_RELATIONSHIP_WITH_TRANSFORMATION(#11)
SHAPE_REPRESENTATION_RELATIONSHIP()
);
#14=(
REPRESENTATION_RELATIONSHIP($,$,#1833,#1831)
REPRESENTATION_RELATIONSHIP_WITH_TRANSFORMATION(#12)
SHAPE_REPRESENTATION_RELATIONSHIP()
);
#15=CONTEXT_DEPENDENT_SHAPE_REPRESENTATION(#13,#1829);
#16=CONTEXT_DEPENDENT_SHAPE_REPRESENTATION(#14,#1830);
#17=NEXT_ASSEMBLY_USAGE_OCCURRENCE('Ring:1','Ring:1','Ring:1',#1835,#1836,
'Ring:1');
#18=NEXT_ASSEMBLY_USAGE_OCCURRENCE('Cap:1','Cap:1','Cap:1',#1835,#1837,
'Cap:1');
#19=B_SPLINE_SURFACE_WITH_KNOTS('',3,3,((#1726,#1727,#1728,#1729),(#1730,
#1731,#1732,#1733),(#1734,#1735,#1736,#1737),(#1738,#1739,#1740,#1741),
(#1742,#1743,#1744,#1745)),.UNSPECIFIED.,.F.,.F.,.F.,(4,1,4),(4,4),(0.,
0.5,1.),(-0.168524471876094,0.00793503410209078),.UNSPECIFIED.);
#20=B_SPLINE_SURFACE_WITH_KNOTS('',3,3,((#1751,#1752,#1753,#1754),(#1755,
#1756,#1757,#1758),(#1759,#1760,#1761,#1762),(#1763,#1764,#1765,#1766),
(#1767,#1768,#1769,#1770)),.UNSPECIFIED.,.F.,.F.,.F.,(4,1,4),(4,4),(0.,
0.5,1.),(-0.00793503410209083,0.168524471876094),.UNSPECIFIED.);
#21=SPHERICAL_SURFACE('',#1100,0.400000000000003);
#22=SPHERICAL_SURFACE('',#1104,0.400000000000003);
#23=SPHERICAL_SURFACE('',#1108,0.399999999999984);
#24=SPHERICAL_SURFACE('',#1112,0.4);
#25=FACE_BOUND('',#377,.T.);
#26=FACE_BOUND('',#397,.T.);
#27=ELLIPSE('',#1055,72.0965513835952,71.2089231986953);
#28=ELLIPSE('',#1059,72.0965513835952,71.2089231986953);
#29=ELLIPSE('',#1065,72.0965513835952,71.2089231986953);
#30=ELLIPSE('',#1072,72.0965513835952,71.2089231986953);
#31=ELLIPSE('',#1117,0.426727496119951,0.4);
#32=ELLIPSE('',#1118,71.4890723081224,70.6089231986953);
#33=ELLIPSE('',#1119,71.094024509216,70.2089231986953);
#34=ELLIPSE('',#1121,71.4890723081224,70.6089231986953);
#35=ELLIPSE('',#1122,71.094024509216,70.2089231986953);
#36=ELLIPSE('',#1124,0.426727496119951,0.4);
#37=ELLIPSE('',#1126,0.408583111458908,0.4);
#38=ELLIPSE('',#1129,0.408583111458908,0.4);
#39=B_SPLINE_CURVE_WITH_KNOTS('',3,(#1472,#1473,#1474,#1475,#1476,#1477,
#1478,#1479,#1480,#1481),.UNSPECIFIED.,.F.,.F.,(4,2,2,2,4),(0.779308973480901,
0.848811030919159,0.942964874685964,1.03736092450002,1.10703112972507),
 .UNSPECIFIED.);
#40=B_SPLINE_CURVE_WITH_KNOTS('',3,(#1489,#1490,#1491,#1492,#1493,#1494,
#1495,#1496,#1497,#1498),.UNSPECIFIED.,.F.,.F.,(4,2,2,2,4),(0.402283244579636,
0.471953449804692,0.566349499618744,0.660503343385549,0.7300054008239),
 .UNSPECIFIED.);
#41=B_SPLINE_CURVE_WITH_KNOTS('',3,(#1506,#1507,#1508,#1509,#1510,#1511,
#1512,#1513,#1514,#1515),.UNSPECIFIED.,.F.,.F.,(4,2,2,2,4),(0.0246546037862735,
0.0941747643721588,0.188349528744318,0.282953464367479,0.352823368275116),
 .UNSPECIFIED.);
#42=B_SPLINE_CURVE_WITH_KNOTS('',3,(#1527,#1528,#1529,#1530,#1531,#1532,
#1533,#1534,#1535,#1536),.UNSPECIFIED.,.F.,.F.,(4,2,2,2,4),(1.15649100602487,
1.22636090993723,1.32096484556039,1.41513960993255,1.48465977051834),
 .UNSPECIFIED.);
#43=CYLINDRICAL_SURFACE('',#1048,2.5);
#44=CYLINDRICAL_SURFACE('',#1054,71.2089231986952);
#45=CYLINDRICAL_SURFACE('',#1057,71.2089231986952);
#46=CYLINDRICAL_SURFACE('',#1064,71.2089231986952);
#47=CYLINDRICAL_SURFACE('',#1071,71.2089231986952);
#48=CYLINDRICAL_SURFACE('',#1099,71.2089231986952);
#49=CYLINDRICAL_SURFACE('',#1116,0.4);
#50=CYLINDRICAL_SURFACE('',#1120,0.4);
#51=CYLINDRICAL_SURFACE('',#1123,0.4);
#52=CYLINDRICAL_SURFACE('',#1125,0.4);
#53=CYLINDRICAL_SURFACE('',#1127,0.4);
#54=CYLINDRICAL_SURFACE('',#1128,0.4);
#55=CYLINDRICAL_SURFACE('',#1133,70.2089231986953);
#56=LINE('',#1452,#151);
#57=LINE('',#1454,#152);
#58=LINE('',#1457,#153);
#59=LINE('',#1460,#154);
#60=LINE('',#1462,#155);
#61=LINE('',#1463,#156);
#62=LINE('',#1466,#157);
#63=LINE('',#1468,#158);
#64=LINE('',#1469,#159);
#65=LINE('',#1483,#160);
#66=LINE('',#1487,#161);
#67=LINE('',#1500,#162);
#68=LINE('',#1504,#163);
#69=LINE('',#1517,#164);
#70=LINE('',#1521,#165);
#71=LINE('',#1526,#166);
#72=LINE('',#1541,#167);
#73=LINE('',#1547,#168);
#74=LINE('',#1552,#169);
#75=LINE('',#1553,#170);
#76=LINE('',#1554,#171);
#77=LINE('',#1557,#172);
#78=LINE('',#1560,#173);
#79=LINE('',#1563,#174);
#80=LINE('',#1566,#175);
#81=LINE('',#1569,#176);
#82=LINE('',#1570,#177);
#83=LINE('',#1574,#178);
#84=LINE('',#1575,#179);
#85=LINE('',#1578,#180);
#86=LINE('',#1581,#181);
#87=LINE('',#1583,#182);
#88=LINE('',#1585,#183);
#89=LINE('',#1586,#184);
#90=LINE('',#1589,#185);
#91=LINE('',#1596,#186);
#92=LINE('',#1598,#187);
#93=LINE('',#1599,#188);
#94=LINE('',#1602,#189);
#95=LINE('',#1604,#190);
#96=LINE('',#1605,#191);
#97=LINE('',#1610,#192);
#98=LINE('',#1611,#193);
#99=LINE('',#1614,#194);
#100=LINE('',#1616,#195);
#101=LINE('',#1617,#196);
#102=LINE('',#1622,#197);
#103=LINE('',#1623,#198);
#104=LINE('',#1628,#199);
#105=LINE('',#1629,#200);
#106=LINE('',#1632,#201);
#107=LINE('',#1634,#202);
#108=LINE('',#1635,#203);
#109=LINE('',#1640,#204);
#110=LINE('',#1641,#205);
#111=LINE('',#1644,#206);
#112=LINE('',#1646,#207);
#113=LINE('',#1647,#208);
#114=LINE('',#1652,#209);
#115=LINE('',#1653,#210);
#116=LINE('',#1656,#211);
#117=LINE('',#1658,#212);
#118=LINE('',#1659,#213);
#119=LINE('',#1664,#214);
#120=LINE('',#1665,#215);
#121=LINE('',#1670,#216);
#122=LINE('',#1671,#217);
#123=LINE('',#1673,#218);
#124=LINE('',#1674,#219);
#125=LINE('',#1678,#220);
#126=LINE('',#1679,#221);
#127=LINE('',#1682,#222);
#128=LINE('',#1683,#223);
#129=LINE('',#1686,#224);
#130=LINE('',#1687,#225);
#131=LINE('',#1689,#226);
#132=LINE('',#1690,#227);
#133=LINE('',#1724,#228);
#134=LINE('',#1725,#229);
#135=LINE('',#1749,#230);
#136=LINE('',#1750,#231);
#137=LINE('',#1777,#232);
#138=LINE('',#1778,#233);
#139=LINE('',#1783,#234);
#140=LINE('',#1784,#235);
#141=LINE('',#1786,#236);
#142=LINE('',#1787,#237);
#143=LINE('',#1792,#238);
#144=LINE('',#1793,#239);
#145=LINE('',#1795,#240);
#146=LINE('',#1797,#241);
#147=LINE('',#1799,#242);
#148=LINE('',#1800,#243);
#149=LINE('',#1805,#244);
#150=LINE('',#1806,#245);
#151=VECTOR('',#1155,10.);
#152=VECTOR('',#1156,10.);
#153=VECTOR('',#1159,10.);
#154=VECTOR('',#1162,10.);
#155=VECTOR('',#1163,10.);
#156=VECTOR('',#1164,10.);
#157=VECTOR('',#1167,10.);
#158=VECTOR('',#1168,10.);
#159=VECTOR('',#1169,10.);
#160=VECTOR('',#1172,10.);
#161=VECTOR('',#1175,10.);
#162=VECTOR('',#1176,10.);
#163=VECTOR('',#1179,10.);
#164=VECTOR('',#1180,10.);
#165=VECTOR('',#1183,2.5);
#166=VECTOR('',#1188,10.);
#167=VECTOR('',#1193,10.);
#168=VECTOR('',#1200,10.);
#169=VECTOR('',#1205,10.);
#170=VECTOR('',#1206,10.);
#171=VECTOR('',#1207,10.);
#172=VECTOR('',#1210,10.);
#173=VECTOR('',#1215,10.);
#174=VECTOR('',#1218,10.);
#175=VECTOR('',#1221,10.);
#176=VECTOR('',#1224,10.);
#177=VECTOR('',#1225,10.);
#178=VECTOR('',#1228,10.);
#179=VECTOR('',#1229,10.);
#180=VECTOR('',#1234,10.);
#181=VECTOR('',#1237,10.);
#182=VECTOR('',#1238,10.);
#183=VECTOR('',#1239,10.);
#184=VECTOR('',#1240,10.);
#185=VECTOR('',#1243,10.);
#186=VECTOR('',#1250,10.);
#187=VECTOR('',#1251,10.);
#188=VECTOR('',#1252,10.);
#189=VECTOR('',#1255,10.);
#190=VECTOR('',#1256,10.);
#191=VECTOR('',#1257,10.);
#192=VECTOR('',#1262,10.);
#193=VECTOR('',#1263,10.);
#194=VECTOR('',#1266,10.);
#195=VECTOR('',#1267,10.);
#196=VECTOR('',#1268,10.);
#197=VECTOR('',#1273,10.);
#198=VECTOR('',#1274,10.);
#199=VECTOR('',#1279,10.);
#200=VECTOR('',#1280,10.);
#201=VECTOR('',#1283,10.);
#202=VECTOR('',#1284,10.);
#203=VECTOR('',#1285,10.);
#204=VECTOR('',#1290,10.);
#205=VECTOR('',#1291,10.);
#206=VECTOR('',#1294,10.);
#207=VECTOR('',#1295,10.);
#208=VECTOR('',#1296,10.);
#209=VECTOR('',#1301,10.);
#210=VECTOR('',#1302,10.);
#211=VECTOR('',#1305,10.);
#212=VECTOR('',#1306,10.);
#213=VECTOR('',#1307,10.);
#214=VECTOR('',#1312,10.);
#215=VECTOR('',#1313,10.);
#216=VECTOR('',#1318,10.);
#217=VECTOR('',#1319,10.);
#218=VECTOR('',#1322,10.);
#219=VECTOR('',#1323,10.);
#220=VECTOR('',#1328,10.);
#221=VECTOR('',#1329,10.);
#222=VECTOR('',#1332,10.);
#223=VECTOR('',#1333,10.);
#224=VECTOR('',#1336,10.);
#225=VECTOR('',#1337,10.);
#226=VECTOR('',#1338,10.);
#227=VECTOR('',#1339,10.);
#228=VECTOR('',#1378,10.);
#229=VECTOR('',#1379,10.);
#230=VECTOR('',#1386,10.);
#231=VECTOR('',#1387,10.);
#232=VECTOR('',#1396,10.);
#233=VECTOR('',#1397,10.);
#234=VECTOR('',#1402,10.);
#235=VECTOR('',#1403,10.);
#236=VECTOR('',#1406,10.);
#237=VECTOR('',#1407,10.);
#238=VECTOR('',#1412,10.);
#239=VECTOR('',#1413,10.);
#240=VECTOR('',#1416,10.);
#241=VECTOR('',#1419,10.);
#242=VECTOR('',#1422,10.);
#243=VECTOR('',#1423,10.);
#244=VECTOR('',#1432,10.);
#245=VECTOR('',#1433,10.);
#246=PLANE('',#1044);
#247=PLANE('',#1046);
#248=PLANE('',#1047);
#249=PLANE('',#1060);
#250=PLANE('',#1061);
#251=PLANE('',#1063);
#252=PLANE('',#1066);
#253=PLANE('',#1067);
#254=PLANE('',#1069);
#255=PLANE('',#1070);
#256=PLANE('',#1073);
#257=PLANE('',#1075);
#258=PLANE('',#1076);
#259=PLANE('',#1078);
#260=PLANE('',#1079);
#261=PLANE('',#1081);
#262=PLANE('',#1083);
#263=PLANE('',#1084);
#264=PLANE('',#1086);
#265=PLANE('',#1087);
#266=PLANE('',#1089);
#267=PLANE('',#1090);
#268=PLANE('',#1092);
#269=PLANE('',#1094);
#270=PLANE('',#1095);
#271=PLANE('',#1096);
#272=PLANE('',#1097);
#273=PLANE('',#1098);
#274=PLANE('',#1130);
#275=PLANE('',#1131);
#276=PLANE('',#1132);
#277=PLANE('',#1134);
#278=PLANE('',#1135);
#279=PLANE('',#1136);
#280=PLANE('',#1137);
#281=PLANE('',#1138);
#282=SHAPE_REPRESENTATION_RELATIONSHIP('SRR','None',#1832,#284);
#283=SHAPE_REPRESENTATION_RELATIONSHIP('SRR','None',#1833,#285);
#284=ADVANCED_BREP_SHAPE_REPRESENTATION('',(#288),#1816);
#285=ADVANCED_BREP_SHAPE_REPRESENTATION('',(#289),#1817);
#286=STYLED_ITEM('',(#1851),#288);
#287=STYLED_ITEM('',(#1850),#289);
#288=MANIFOLD_SOLID_BREP('Ring',#1013);
#289=MANIFOLD_SOLID_BREP('Cap',#1014);
#290=FACE_OUTER_BOUND('',#346,.T.);
#291=FACE_OUTER_BOUND('',#347,.T.);
#292=FACE_OUTER_BOUND('',#348,.T.);
#293=FACE_OUTER_BOUND('',#349,.T.);
#294=FACE_OUTER_BOUND('',#350,.T.);
#295=FACE_OUTER_BOUND('',#351,.T.);
#296=FACE_OUTER_BOUND('',#352,.T.);
#297=FACE_OUTER_BOUND('',#353,.T.);
#298=FACE_OUTER_BOUND('',#354,.T.);
#299=FACE_OUTER_BOUND('',#355,.T.);
#300=FACE_OUTER_BOUND('',#356,.T.);
#301=FACE_OUTER_BOUND('',#357,.T.);
#302=FACE_OUTER_BOUND('',#358,.T.);
#303=FACE_OUTER_BOUND('',#359,.T.);
#304=FACE_OUTER_BOUND('',#360,.T.);
#305=FACE_OUTER_BOUND('',#361,.T.);
#306=FACE_OUTER_BOUND('',#362,.T.);
#307=FACE_OUTER_BOUND('',#363,.T.);
#308=FACE_OUTER_BOUND('',#364,.T.);
#309=FACE_OUTER_BOUND('',#365,.T.);
#310=FACE_OUTER_BOUND('',#366,.T.);
#311=FACE_OUTER_BOUND('',#367,.T.);
#312=FACE_OUTER_BOUND('',#368,.T.);
#313=FACE_OUTER_BOUND('',#369,.T.);
#314=FACE_OUTER_BOUND('',#370,.T.);
#315=FACE_OUTER_BOUND('',#371,.T.);
#316=FACE_OUTER_BOUND('',#372,.T.);
#317=FACE_OUTER_BOUND('',#373,.T.);
#318=FACE_OUTER_BOUND('',#374,.T.);
#319=FACE_OUTER_BOUND('',#375,.T.);
#320=FACE_OUTER_BOUND('',#376,.T.);
#321=FACE_OUTER_BOUND('',#378,.T.);
#322=FACE_OUTER_BOUND('',#379,.T.);
#323=FACE_OUTER_BOUND('',#380,.T.);
#324=FACE_OUTER_BOUND('',#381,.T.);
#325=FACE_OUTER_BOUND('',#382,.T.);
#326=FACE_OUTER_BOUND('',#383,.T.);
#327=FACE_OUTER_BOUND('',#384,.T.);
#328=FACE_OUTER_BOUND('',#385,.T.);
#329=FACE_OUTER_BOUND('',#386,.T.);
#330=FACE_OUTER_BOUND('',#387,.T.);
#331=FACE_OUTER_BOUND('',#388,.T.);
#332=FACE_OUTER_BOUND('',#389,.T.);
#333=FACE_OUTER_BOUND('',#390,.T.);
#334=FACE_OUTER_BOUND('',#391,.T.);
#335=FACE_OUTER_BOUND('',#392,.T.);
#336=FACE_OUTER_BOUND('',#393,.T.);
#337=FACE_OUTER_BOUND('',#394,.T.);
#338=FACE_OUTER_BOUND('',#395,.T.);
#339=FACE_OUTER_BOUND('',#396,.T.);
#340=FACE_OUTER_BOUND('',#398,.T.);
#341=FACE_OUTER_BOUND('',#399,.T.);
#342=FACE_OUTER_BOUND('',#400,.T.);
#343=FACE_OUTER_BOUND('',#401,.T.);
#344=FACE_OUTER_BOUND('',#402,.T.);
#345=FACE_OUTER_BOUND('',#403,.T.);
#346=EDGE_LOOP('',(#670,#671,#672,#673));
#347=EDGE_LOOP('',(#674,#675,#676,#677));
#348=EDGE_LOOP('',(#678,#679,#680,#681));
#349=EDGE_LOOP('',(#682,#683,#684,#685));
#350=EDGE_LOOP('',(#686,#687,#688,#689,#690,#691,#692,#693,#694,#695,#696,
#697,#698,#699,#700,#701,#702,#703,#704,#705));
#351=EDGE_LOOP('',(#706,#707,#708,#709,#710));
#352=EDGE_LOOP('',(#711,#712,#713,#714,#715));
#353=EDGE_LOOP('',(#716,#717,#718,#719));
#354=EDGE_LOOP('',(#720,#721,#722,#723));
#355=EDGE_LOOP('',(#724,#725,#726,#727));
#356=EDGE_LOOP('',(#728,#729,#730,#731,#732));
#357=EDGE_LOOP('',(#733,#734,#735,#736));
#358=EDGE_LOOP('',(#737,#738,#739,#740));
#359=EDGE_LOOP('',(#741,#742,#743,#744,#745));
#360=EDGE_LOOP('',(#746,#747,#748,#749,#750,#751,#752,#753));
#361=EDGE_LOOP('',(#754,#755,#756,#757,#758));
#362=EDGE_LOOP('',(#759,#760,#761,#762));
#363=EDGE_LOOP('',(#763,#764,#765,#766));
#364=EDGE_LOOP('',(#767,#768,#769,#770));
#365=EDGE_LOOP('',(#771,#772,#773,#774));
#366=EDGE_LOOP('',(#775,#776,#777,#778));
#367=EDGE_LOOP('',(#779,#780,#781,#782));
#368=EDGE_LOOP('',(#783,#784,#785,#786));
#369=EDGE_LOOP('',(#787,#788,#789,#790));
#370=EDGE_LOOP('',(#791,#792,#793,#794));
#371=EDGE_LOOP('',(#795,#796,#797,#798));
#372=EDGE_LOOP('',(#799,#800,#801,#802));
#373=EDGE_LOOP('',(#803,#804,#805,#806));
#374=EDGE_LOOP('',(#807,#808,#809,#810));
#375=EDGE_LOOP('',(#811,#812,#813,#814));
#376=EDGE_LOOP('',(#815));
#377=EDGE_LOOP('',(#816,#817,#818,#819,#820,#821,#822,#823,#824,#825,#826,
#827,#828,#829));
#378=EDGE_LOOP('',(#830,#831,#832,#833,#834,#835,#836,#837));
#379=EDGE_LOOP('',(#838,#839,#840,#841,#842,#843,#844,#845));
#380=EDGE_LOOP('',(#846,#847,#848,#849,#850,#851,#852,#853));
#381=EDGE_LOOP('',(#854,#855,#856,#857,#858,#859,#860,#861,#862,#863,#864,
#865,#866,#867));
#382=EDGE_LOOP('',(#868,#869,#870));
#383=EDGE_LOOP('',(#871,#872,#873));
#384=EDGE_LOOP('',(#874,#875,#876));
#385=EDGE_LOOP('',(#877,#878,#879));
#386=EDGE_LOOP('',(#880,#881,#882,#883));
#387=EDGE_LOOP('',(#884,#885,#886,#887));
#388=EDGE_LOOP('',(#888,#889,#890,#891));
#389=EDGE_LOOP('',(#892,#893,#894,#895));
#390=EDGE_LOOP('',(#896,#897,#898,#899));
#391=EDGE_LOOP('',(#900,#901,#902,#903));
#392=EDGE_LOOP('',(#904,#905,#906,#907));
#393=EDGE_LOOP('',(#908,#909,#910,#911));
#394=EDGE_LOOP('',(#912,#913,#914,#915));
#395=EDGE_LOOP('',(#916,#917,#918,#919));
#396=EDGE_LOOP('',(#920,#921,#922,#923,#924,#925,#926,#927));
#397=EDGE_LOOP('',(#928,#929,#930,#931));
#398=EDGE_LOOP('',(#932,#933,#934,#935));
#399=EDGE_LOOP('',(#936,#937,#938,#939));
#400=EDGE_LOOP('',(#940,#941,#942,#943));
#401=EDGE_LOOP('',(#944,#945,#946,#947));
#402=EDGE_LOOP('',(#948,#949,#950,#951));
#403=EDGE_LOOP('',(#952,#953,#954,#955));
#404=CIRCLE('',#1041,1.);
#405=CIRCLE('',#1042,2.5);
#406=CIRCLE('',#1045,2.5);
#407=CIRCLE('',#1049,2.5);
#408=CIRCLE('',#1050,2.5);
#409=CIRCLE('',#1051,2.5);
#410=CIRCLE('',#1052,2.5);
#411=CIRCLE('',#1053,2.5);
#412=CIRCLE('',#1056,71.2089231986952);
#413=CIRCLE('',#1058,71.2089231986952);
#414=CIRCLE('',#1062,71.2089231986952);
#415=CIRCLE('',#1068,71.2089231986952);
#416=CIRCLE('',#1074,71.2089231986952);
#417=CIRCLE('',#1077,71.2089231986952);
#418=CIRCLE('',#1080,71.2089231986958);
#419=CIRCLE('',#1082,71.2089231986952);
#420=CIRCLE('',#1085,71.2089231986952);
#421=CIRCLE('',#1088,71.2089231986952);
#422=CIRCLE('',#1091,71.2089231986952);
#423=CIRCLE('',#1093,71.2089279130648);
#424=CIRCLE('',#1101,0.4);
#425=CIRCLE('',#1102,0.400000000000003);
#426=CIRCLE('',#1103,0.399999999999998);
#427=CIRCLE('',#1105,0.399999999999995);
#428=CIRCLE('',#1106,0.400000000000003);
#429=CIRCLE('',#1107,0.399999999999999);
#430=CIRCLE('',#1109,0.400000000000001);
#431=CIRCLE('',#1110,0.399999999999984);
#432=CIRCLE('',#1111,0.400000000000005);
#433=CIRCLE('',#1113,0.399999999999999);
#434=CIRCLE('',#1114,0.4);
#435=CIRCLE('',#1115,0.399999999999993);
#436=VERTEX_POINT('',#1445);
#437=VERTEX_POINT('',#1450);
#438=VERTEX_POINT('',#1451);
#439=VERTEX_POINT('',#1453);
#440=VERTEX_POINT('',#1455);
#441=VERTEX_POINT('',#1459);
#442=VERTEX_POINT('',#1461);
#443=VERTEX_POINT('',#1465);
#444=VERTEX_POINT('',#1467);
#445=VERTEX_POINT('',#1471);
#446=VERTEX_POINT('',#1482);
#447=VERTEX_POINT('',#1484);
#448=VERTEX_POINT('',#1486);
#449=VERTEX_POINT('',#1488);
#450=VERTEX_POINT('',#1499);
#451=VERTEX_POINT('',#1501);
#452=VERTEX_POINT('',#1503);
#453=VERTEX_POINT('',#1505);
#454=VERTEX_POINT('',#1516);
#455=VERTEX_POINT('',#1518);
#456=VERTEX_POINT('',#1520);
#457=VERTEX_POINT('',#1523);
#458=VERTEX_POINT('',#1525);
#459=VERTEX_POINT('',#1538);
#460=VERTEX_POINT('',#1540);
#461=VERTEX_POINT('',#1544);
#462=VERTEX_POINT('',#1546);
#463=VERTEX_POINT('',#1550);
#464=VERTEX_POINT('',#1551);
#465=VERTEX_POINT('',#1556);
#466=VERTEX_POINT('',#1562);
#467=VERTEX_POINT('',#1564);
#468=VERTEX_POINT('',#1568);
#469=VERTEX_POINT('',#1572);
#470=VERTEX_POINT('',#1573);
#471=VERTEX_POINT('',#1580);
#472=VERTEX_POINT('',#1582);
#473=VERTEX_POINT('',#1584);
#474=VERTEX_POINT('',#1588);
#475=VERTEX_POINT('',#1592);
#476=VERTEX_POINT('',#1593);
#477=VERTEX_POINT('',#1595);
#478=VERTEX_POINT('',#1597);
#479=VERTEX_POINT('',#1601);
#480=VERTEX_POINT('',#1603);
#481=VERTEX_POINT('',#1607);
#482=VERTEX_POINT('',#1609);
#483=VERTEX_POINT('',#1613);
#484=VERTEX_POINT('',#1615);
#485=VERTEX_POINT('',#1619);
#486=VERTEX_POINT('',#1621);
#487=VERTEX_POINT('',#1625);
#488=VERTEX_POINT('',#1627);
#489=VERTEX_POINT('',#1631);
#490=VERTEX_POINT('',#1633);
#491=VERTEX_POINT('',#1637);
#492=VERTEX_POINT('',#1639);
#493=VERTEX_POINT('',#1643);
#494=VERTEX_POINT('',#1645);
#495=VERTEX_POINT('',#1649);
#496=VERTEX_POINT('',#1651);
#497=VERTEX_POINT('',#1655);
#498=VERTEX_POINT('',#1657);
#499=VERTEX_POINT('',#1661);
#500=VERTEX_POINT('',#1663);
#501=VERTEX_POINT('',#1667);
#502=VERTEX_POINT('',#1669);
#503=VERTEX_POINT('',#1677);
#504=VERTEX_POINT('',#1681);
#505=VERTEX_POINT('',#1685);
#506=VERTEX_POINT('',#1688);
#507=VERTEX_POINT('',#1693);
#508=VERTEX_POINT('',#1694);
#509=VERTEX_POINT('',#1696);
#510=VERTEX_POINT('',#1700);
#511=VERTEX_POINT('',#1701);
#512=VERTEX_POINT('',#1703);
#513=VERTEX_POINT('',#1707);
#514=VERTEX_POINT('',#1708);
#515=VERTEX_POINT('',#1710);
#516=VERTEX_POINT('',#1714);
#517=VERTEX_POINT('',#1715);
#518=VERTEX_POINT('',#1717);
#519=VERTEX_POINT('',#1721);
#520=VERTEX_POINT('',#1722);
#521=VERTEX_POINT('',#1774);
#522=VERTEX_POINT('',#1775);
#523=VERTEX_POINT('',#1780);
#524=VERTEX_POINT('',#1781);
#525=VERTEX_POINT('',#1789);
#526=VERTEX_POINT('',#1790);
#527=EDGE_CURVE('',#436,#436,#404,.T.);
#528=EDGE_CURVE('',#436,#436,#405,.T.);
#529=EDGE_CURVE('',#437,#438,#56,.T.);
#530=EDGE_CURVE('',#437,#439,#57,.F.);
#531=EDGE_CURVE('',#440,#439,#406,.T.);
#532=EDGE_CURVE('',#440,#438,#58,.F.);
#533=EDGE_CURVE('',#441,#437,#59,.T.);
#534=EDGE_CURVE('',#442,#441,#60,.T.);
#535=EDGE_CURVE('',#439,#442,#61,.T.);
#536=EDGE_CURVE('',#438,#443,#62,.T.);
#537=EDGE_CURVE('',#444,#440,#63,.T.);
#538=EDGE_CURVE('',#443,#444,#64,.T.);
#539=EDGE_CURVE('',#445,#442,#39,.T.);
#540=EDGE_CURVE('',#445,#446,#65,.T.);
#541=EDGE_CURVE('',#446,#447,#407,.T.);
#542=EDGE_CURVE('',#447,#448,#66,.T.);
#543=EDGE_CURVE('',#449,#448,#40,.T.);
#544=EDGE_CURVE('',#450,#449,#67,.T.);
#545=EDGE_CURVE('',#451,#450,#408,.F.);
#546=EDGE_CURVE('',#451,#452,#68,.T.);
#547=EDGE_CURVE('',#453,#452,#41,.T.);
#548=EDGE_CURVE('',#453,#454,#69,.T.);
#549=EDGE_CURVE('',#454,#455,#409,.T.);
#550=EDGE_CURVE('',#455,#456,#70,.T.);
#551=EDGE_CURVE('',#456,#456,#410,.T.);
#552=EDGE_CURVE('',#455,#457,#411,.T.);
#553=EDGE_CURVE('',#457,#458,#71,.T.);
#554=EDGE_CURVE('',#444,#458,#42,.T.);
#555=EDGE_CURVE('',#459,#441,#27,.T.);
#556=EDGE_CURVE('',#460,#459,#72,.F.);
#557=EDGE_CURVE('',#460,#445,#412,.T.);
#558=EDGE_CURVE('',#458,#461,#413,.T.);
#559=EDGE_CURVE('',#462,#461,#73,.T.);
#560=EDGE_CURVE('',#443,#462,#28,.T.);
#561=EDGE_CURVE('',#463,#464,#74,.T.);
#562=EDGE_CURVE('',#463,#447,#75,.F.);
#563=EDGE_CURVE('',#446,#464,#76,.F.);
#564=EDGE_CURVE('',#465,#463,#77,.T.);
#565=EDGE_CURVE('',#448,#465,#414,.T.);
#566=EDGE_CURVE('',#464,#460,#78,.T.);
#567=EDGE_CURVE('',#466,#465,#79,.F.);
#568=EDGE_CURVE('',#466,#467,#29,.F.);
#569=EDGE_CURVE('',#449,#467,#80,.T.);
#570=EDGE_CURVE('',#461,#468,#81,.T.);
#571=EDGE_CURVE('',#468,#457,#82,.F.);
#572=EDGE_CURVE('',#469,#470,#83,.T.);
#573=EDGE_CURVE('',#454,#469,#84,.F.);
#574=EDGE_CURVE('',#470,#453,#415,.T.);
#575=EDGE_CURVE('',#468,#469,#85,.T.);
#576=EDGE_CURVE('',#470,#471,#86,.T.);
#577=EDGE_CURVE('',#471,#472,#87,.T.);
#578=EDGE_CURVE('',#473,#472,#88,.T.);
#579=EDGE_CURVE('',#462,#473,#89,.F.);
#580=EDGE_CURVE('',#474,#452,#90,.T.);
#581=EDGE_CURVE('',#474,#471,#30,.F.);
#582=EDGE_CURVE('',#475,#476,#416,.T.);
#583=EDGE_CURVE('',#477,#475,#91,.T.);
#584=EDGE_CURVE('',#477,#478,#92,.T.);
#585=EDGE_CURVE('',#478,#476,#93,.T.);
#586=EDGE_CURVE('',#479,#475,#94,.T.);
#587=EDGE_CURVE('',#480,#479,#95,.T.);
#588=EDGE_CURVE('',#480,#477,#96,.T.);
#589=EDGE_CURVE('',#481,#479,#417,.T.);
#590=EDGE_CURVE('',#482,#481,#97,.T.);
#591=EDGE_CURVE('',#482,#480,#98,.T.);
#592=EDGE_CURVE('',#483,#481,#99,.T.);
#593=EDGE_CURVE('',#484,#483,#100,.T.);
#594=EDGE_CURVE('',#484,#482,#101,.T.);
#595=EDGE_CURVE('',#485,#483,#418,.T.);
#596=EDGE_CURVE('',#486,#485,#102,.T.);
#597=EDGE_CURVE('',#486,#484,#103,.T.);
#598=EDGE_CURVE('',#487,#485,#419,.T.);
#599=EDGE_CURVE('',#488,#487,#104,.T.);
#600=EDGE_CURVE('',#488,#486,#105,.T.);
#601=EDGE_CURVE('',#489,#487,#106,.T.);
#602=EDGE_CURVE('',#490,#489,#107,.T.);
#603=EDGE_CURVE('',#490,#488,#108,.T.);
#604=EDGE_CURVE('',#491,#489,#420,.T.);
#605=EDGE_CURVE('',#492,#491,#109,.T.);
#606=EDGE_CURVE('',#492,#490,#110,.T.);
#607=EDGE_CURVE('',#493,#491,#111,.T.);
#608=EDGE_CURVE('',#494,#493,#112,.T.);
#609=EDGE_CURVE('',#494,#492,#113,.T.);
#610=EDGE_CURVE('',#495,#493,#421,.T.);
#611=EDGE_CURVE('',#496,#495,#114,.T.);
#612=EDGE_CURVE('',#496,#494,#115,.T.);
#613=EDGE_CURVE('',#497,#495,#116,.T.);
#614=EDGE_CURVE('',#498,#497,#117,.T.);
#615=EDGE_CURVE('',#498,#496,#118,.T.);
#616=EDGE_CURVE('',#499,#497,#422,.T.);
#617=EDGE_CURVE('',#500,#499,#119,.T.);
#618=EDGE_CURVE('',#500,#498,#120,.T.);
#619=EDGE_CURVE('',#501,#499,#423,.T.);
#620=EDGE_CURVE('',#502,#501,#121,.T.);
#621=EDGE_CURVE('',#502,#500,#122,.T.);
#622=EDGE_CURVE('',#476,#501,#123,.T.);
#623=EDGE_CURVE('',#478,#502,#124,.T.);
#624=EDGE_CURVE('',#503,#473,#125,.T.);
#625=EDGE_CURVE('',#503,#459,#126,.T.);
#626=EDGE_CURVE('',#504,#503,#127,.T.);
#627=EDGE_CURVE('',#504,#466,#128,.T.);
#628=EDGE_CURVE('',#467,#505,#129,.T.);
#629=EDGE_CURVE('',#472,#504,#130,.T.);
#630=EDGE_CURVE('',#506,#474,#131,.T.);
#631=EDGE_CURVE('',#505,#506,#132,.T.);
#632=EDGE_CURVE('',#507,#508,#424,.F.);
#633=EDGE_CURVE('',#509,#507,#425,.F.);
#634=EDGE_CURVE('',#508,#509,#426,.F.);
#635=EDGE_CURVE('',#510,#511,#427,.F.);
#636=EDGE_CURVE('',#512,#510,#428,.F.);
#637=EDGE_CURVE('',#511,#512,#429,.F.);
#638=EDGE_CURVE('',#513,#514,#430,.F.);
#639=EDGE_CURVE('',#515,#513,#431,.F.);
#640=EDGE_CURVE('',#514,#515,#432,.F.);
#641=EDGE_CURVE('',#516,#517,#433,.F.);
#642=EDGE_CURVE('',#518,#516,#434,.F.);
#643=EDGE_CURVE('',#517,#518,#435,.F.);
#644=EDGE_CURVE('',#519,#520,#31,.T.);
#645=EDGE_CURVE('',#520,#518,#133,.T.);
#646=EDGE_CURVE('',#516,#519,#134,.T.);
#647=EDGE_CURVE('',#518,#512,#32,.T.);
#648=EDGE_CURVE('',#510,#517,#33,.T.);
#649=EDGE_CURVE('',#513,#516,#135,.T.);
#650=EDGE_CURVE('',#517,#515,#136,.T.);
#651=EDGE_CURVE('',#508,#514,#34,.T.);
#652=EDGE_CURVE('',#515,#507,#35,.T.);
#653=EDGE_CURVE('',#521,#522,#36,.T.);
#654=EDGE_CURVE('',#522,#513,#137,.T.);
#655=EDGE_CURVE('',#514,#521,#138,.T.);
#656=EDGE_CURVE('',#523,#524,#37,.T.);
#657=EDGE_CURVE('',#524,#511,#139,.T.);
#658=EDGE_CURVE('',#512,#523,#140,.T.);
#659=EDGE_CURVE('',#507,#510,#141,.T.);
#660=EDGE_CURVE('',#511,#509,#142,.T.);
#661=EDGE_CURVE('',#525,#526,#38,.T.);
#662=EDGE_CURVE('',#526,#508,#143,.T.);
#663=EDGE_CURVE('',#509,#525,#144,.T.);
#664=EDGE_CURVE('',#526,#521,#145,.T.);
#665=EDGE_CURVE('',#524,#525,#146,.T.);
#666=EDGE_CURVE('',#523,#520,#147,.T.);
#667=EDGE_CURVE('',#519,#522,#148,.T.);
#668=EDGE_CURVE('',#506,#451,#149,.F.);
#669=EDGE_CURVE('',#450,#505,#150,.F.);
#670=ORIENTED_EDGE('',*,*,#527,.F.);
#671=ORIENTED_EDGE('',*,*,#528,.T.);
#672=ORIENTED_EDGE('',*,*,#527,.T.);
#673=ORIENTED_EDGE('',*,*,#528,.F.);
#674=ORIENTED_EDGE('',*,*,#529,.F.);
#675=ORIENTED_EDGE('',*,*,#530,.T.);
#676=ORIENTED_EDGE('',*,*,#531,.F.);
#677=ORIENTED_EDGE('',*,*,#532,.T.);
#678=ORIENTED_EDGE('',*,*,#533,.F.);
#679=ORIENTED_EDGE('',*,*,#534,.F.);
#680=ORIENTED_EDGE('',*,*,#535,.F.);
#681=ORIENTED_EDGE('',*,*,#530,.F.);
#682=ORIENTED_EDGE('',*,*,#536,.F.);
#683=ORIENTED_EDGE('',*,*,#532,.F.);
#684=ORIENTED_EDGE('',*,*,#537,.F.);
#685=ORIENTED_EDGE('',*,*,#538,.F.);
#686=ORIENTED_EDGE('',*,*,#537,.T.);
#687=ORIENTED_EDGE('',*,*,#531,.T.);
#688=ORIENTED_EDGE('',*,*,#535,.T.);
#689=ORIENTED_EDGE('',*,*,#539,.F.);
#690=ORIENTED_EDGE('',*,*,#540,.T.);
#691=ORIENTED_EDGE('',*,*,#541,.T.);
#692=ORIENTED_EDGE('',*,*,#542,.T.);
#693=ORIENTED_EDGE('',*,*,#543,.F.);
#694=ORIENTED_EDGE('',*,*,#544,.F.);
#695=ORIENTED_EDGE('',*,*,#545,.F.);
#696=ORIENTED_EDGE('',*,*,#546,.T.);
#697=ORIENTED_EDGE('',*,*,#547,.F.);
#698=ORIENTED_EDGE('',*,*,#548,.T.);
#699=ORIENTED_EDGE('',*,*,#549,.T.);
#700=ORIENTED_EDGE('',*,*,#550,.T.);
#701=ORIENTED_EDGE('',*,*,#551,.T.);
#702=ORIENTED_EDGE('',*,*,#550,.F.);
#703=ORIENTED_EDGE('',*,*,#552,.T.);
#704=ORIENTED_EDGE('',*,*,#553,.T.);
#705=ORIENTED_EDGE('',*,*,#554,.F.);
#706=ORIENTED_EDGE('',*,*,#534,.T.);
#707=ORIENTED_EDGE('',*,*,#555,.F.);
#708=ORIENTED_EDGE('',*,*,#556,.F.);
#709=ORIENTED_EDGE('',*,*,#557,.T.);
#710=ORIENTED_EDGE('',*,*,#539,.T.);
#711=ORIENTED_EDGE('',*,*,#538,.T.);
#712=ORIENTED_EDGE('',*,*,#554,.T.);
#713=ORIENTED_EDGE('',*,*,#558,.T.);
#714=ORIENTED_EDGE('',*,*,#559,.F.);
#715=ORIENTED_EDGE('',*,*,#560,.F.);
#716=ORIENTED_EDGE('',*,*,#561,.F.);
#717=ORIENTED_EDGE('',*,*,#562,.T.);
#718=ORIENTED_EDGE('',*,*,#541,.F.);
#719=ORIENTED_EDGE('',*,*,#563,.T.);
#720=ORIENTED_EDGE('',*,*,#564,.F.);
#721=ORIENTED_EDGE('',*,*,#565,.F.);
#722=ORIENTED_EDGE('',*,*,#542,.F.);
#723=ORIENTED_EDGE('',*,*,#562,.F.);
#724=ORIENTED_EDGE('',*,*,#566,.F.);
#725=ORIENTED_EDGE('',*,*,#563,.F.);
#726=ORIENTED_EDGE('',*,*,#540,.F.);
#727=ORIENTED_EDGE('',*,*,#557,.F.);
#728=ORIENTED_EDGE('',*,*,#565,.T.);
#729=ORIENTED_EDGE('',*,*,#567,.F.);
#730=ORIENTED_EDGE('',*,*,#568,.T.);
#731=ORIENTED_EDGE('',*,*,#569,.F.);
#732=ORIENTED_EDGE('',*,*,#543,.T.);
#733=ORIENTED_EDGE('',*,*,#570,.F.);
#734=ORIENTED_EDGE('',*,*,#558,.F.);
#735=ORIENTED_EDGE('',*,*,#553,.F.);
#736=ORIENTED_EDGE('',*,*,#571,.F.);
#737=ORIENTED_EDGE('',*,*,#572,.F.);
#738=ORIENTED_EDGE('',*,*,#573,.F.);
#739=ORIENTED_EDGE('',*,*,#548,.F.);
#740=ORIENTED_EDGE('',*,*,#574,.F.);
#741=ORIENTED_EDGE('',*,*,#575,.F.);
#742=ORIENTED_EDGE('',*,*,#571,.T.);
#743=ORIENTED_EDGE('',*,*,#552,.F.);
#744=ORIENTED_EDGE('',*,*,#549,.F.);
#745=ORIENTED_EDGE('',*,*,#573,.T.);
#746=ORIENTED_EDGE('',*,*,#570,.T.);
#747=ORIENTED_EDGE('',*,*,#575,.T.);
#748=ORIENTED_EDGE('',*,*,#572,.T.);
#749=ORIENTED_EDGE('',*,*,#576,.T.);
#750=ORIENTED_EDGE('',*,*,#577,.T.);
#751=ORIENTED_EDGE('',*,*,#578,.F.);
#752=ORIENTED_EDGE('',*,*,#579,.F.);
#753=ORIENTED_EDGE('',*,*,#559,.T.);
#754=ORIENTED_EDGE('',*,*,#574,.T.);
#755=ORIENTED_EDGE('',*,*,#547,.T.);
#756=ORIENTED_EDGE('',*,*,#580,.F.);
#757=ORIENTED_EDGE('',*,*,#581,.T.);
#758=ORIENTED_EDGE('',*,*,#576,.F.);
#759=ORIENTED_EDGE('',*,*,#582,.F.);
#760=ORIENTED_EDGE('',*,*,#583,.F.);
#761=ORIENTED_EDGE('',*,*,#584,.T.);
#762=ORIENTED_EDGE('',*,*,#585,.T.);
#763=ORIENTED_EDGE('',*,*,#586,.F.);
#764=ORIENTED_EDGE('',*,*,#587,.F.);
#765=ORIENTED_EDGE('',*,*,#588,.T.);
#766=ORIENTED_EDGE('',*,*,#583,.T.);
#767=ORIENTED_EDGE('',*,*,#589,.F.);
#768=ORIENTED_EDGE('',*,*,#590,.F.);
#769=ORIENTED_EDGE('',*,*,#591,.T.);
#770=ORIENTED_EDGE('',*,*,#587,.T.);
#771=ORIENTED_EDGE('',*,*,#592,.F.);
#772=ORIENTED_EDGE('',*,*,#593,.F.);
#773=ORIENTED_EDGE('',*,*,#594,.T.);
#774=ORIENTED_EDGE('',*,*,#590,.T.);
#775=ORIENTED_EDGE('',*,*,#595,.F.);
#776=ORIENTED_EDGE('',*,*,#596,.F.);
#777=ORIENTED_EDGE('',*,*,#597,.T.);
#778=ORIENTED_EDGE('',*,*,#593,.T.);
#779=ORIENTED_EDGE('',*,*,#598,.F.);
#780=ORIENTED_EDGE('',*,*,#599,.F.);
#781=ORIENTED_EDGE('',*,*,#600,.T.);
#782=ORIENTED_EDGE('',*,*,#596,.T.);
#783=ORIENTED_EDGE('',*,*,#601,.F.);
#784=ORIENTED_EDGE('',*,*,#602,.F.);
#785=ORIENTED_EDGE('',*,*,#603,.T.);
#786=ORIENTED_EDGE('',*,*,#599,.T.);
#787=ORIENTED_EDGE('',*,*,#604,.F.);
#788=ORIENTED_EDGE('',*,*,#605,.F.);
#789=ORIENTED_EDGE('',*,*,#606,.T.);
#790=ORIENTED_EDGE('',*,*,#602,.T.);
#791=ORIENTED_EDGE('',*,*,#607,.F.);
#792=ORIENTED_EDGE('',*,*,#608,.F.);
#793=ORIENTED_EDGE('',*,*,#609,.T.);
#794=ORIENTED_EDGE('',*,*,#605,.T.);
#795=ORIENTED_EDGE('',*,*,#610,.F.);
#796=ORIENTED_EDGE('',*,*,#611,.F.);
#797=ORIENTED_EDGE('',*,*,#612,.T.);
#798=ORIENTED_EDGE('',*,*,#608,.T.);
#799=ORIENTED_EDGE('',*,*,#613,.F.);
#800=ORIENTED_EDGE('',*,*,#614,.F.);
#801=ORIENTED_EDGE('',*,*,#615,.T.);
#802=ORIENTED_EDGE('',*,*,#611,.T.);
#803=ORIENTED_EDGE('',*,*,#616,.F.);
#804=ORIENTED_EDGE('',*,*,#617,.F.);
#805=ORIENTED_EDGE('',*,*,#618,.T.);
#806=ORIENTED_EDGE('',*,*,#614,.T.);
#807=ORIENTED_EDGE('',*,*,#619,.F.);
#808=ORIENTED_EDGE('',*,*,#620,.F.);
#809=ORIENTED_EDGE('',*,*,#621,.T.);
#810=ORIENTED_EDGE('',*,*,#617,.T.);
#811=ORIENTED_EDGE('',*,*,#622,.F.);
#812=ORIENTED_EDGE('',*,*,#585,.F.);
#813=ORIENTED_EDGE('',*,*,#623,.T.);
#814=ORIENTED_EDGE('',*,*,#620,.T.);
#815=ORIENTED_EDGE('',*,*,#551,.F.);
#816=ORIENTED_EDGE('',*,*,#600,.F.);
#817=ORIENTED_EDGE('',*,*,#603,.F.);
#818=ORIENTED_EDGE('',*,*,#606,.F.);
#819=ORIENTED_EDGE('',*,*,#609,.F.);
#820=ORIENTED_EDGE('',*,*,#612,.F.);
#821=ORIENTED_EDGE('',*,*,#615,.F.);
#822=ORIENTED_EDGE('',*,*,#618,.F.);
#823=ORIENTED_EDGE('',*,*,#621,.F.);
#824=ORIENTED_EDGE('',*,*,#623,.F.);
#825=ORIENTED_EDGE('',*,*,#584,.F.);
#826=ORIENTED_EDGE('',*,*,#588,.F.);
#827=ORIENTED_EDGE('',*,*,#591,.F.);
#828=ORIENTED_EDGE('',*,*,#594,.F.);
#829=ORIENTED_EDGE('',*,*,#597,.F.);
#830=ORIENTED_EDGE('',*,*,#536,.T.);
#831=ORIENTED_EDGE('',*,*,#560,.T.);
#832=ORIENTED_EDGE('',*,*,#579,.T.);
#833=ORIENTED_EDGE('',*,*,#624,.F.);
#834=ORIENTED_EDGE('',*,*,#625,.T.);
#835=ORIENTED_EDGE('',*,*,#555,.T.);
#836=ORIENTED_EDGE('',*,*,#533,.T.);
#837=ORIENTED_EDGE('',*,*,#529,.T.);
#838=ORIENTED_EDGE('',*,*,#566,.T.);
#839=ORIENTED_EDGE('',*,*,#556,.T.);
#840=ORIENTED_EDGE('',*,*,#625,.F.);
#841=ORIENTED_EDGE('',*,*,#626,.F.);
#842=ORIENTED_EDGE('',*,*,#627,.T.);
#843=ORIENTED_EDGE('',*,*,#567,.T.);
#844=ORIENTED_EDGE('',*,*,#564,.T.);
#845=ORIENTED_EDGE('',*,*,#561,.T.);
#846=ORIENTED_EDGE('',*,*,#628,.F.);
#847=ORIENTED_EDGE('',*,*,#568,.F.);
#848=ORIENTED_EDGE('',*,*,#627,.F.);
#849=ORIENTED_EDGE('',*,*,#629,.F.);
#850=ORIENTED_EDGE('',*,*,#577,.F.);
#851=ORIENTED_EDGE('',*,*,#581,.F.);
#852=ORIENTED_EDGE('',*,*,#630,.F.);
#853=ORIENTED_EDGE('',*,*,#631,.F.);
#854=ORIENTED_EDGE('',*,*,#601,.T.);
#855=ORIENTED_EDGE('',*,*,#598,.T.);
#856=ORIENTED_EDGE('',*,*,#595,.T.);
#857=ORIENTED_EDGE('',*,*,#592,.T.);
#858=ORIENTED_EDGE('',*,*,#589,.T.);
#859=ORIENTED_EDGE('',*,*,#586,.T.);
#860=ORIENTED_EDGE('',*,*,#582,.T.);
#861=ORIENTED_EDGE('',*,*,#622,.T.);
#862=ORIENTED_EDGE('',*,*,#619,.T.);
#863=ORIENTED_EDGE('',*,*,#616,.T.);
#864=ORIENTED_EDGE('',*,*,#613,.T.);
#865=ORIENTED_EDGE('',*,*,#610,.T.);
#866=ORIENTED_EDGE('',*,*,#607,.T.);
#867=ORIENTED_EDGE('',*,*,#604,.T.);
#868=ORIENTED_EDGE('',*,*,#632,.F.);
#869=ORIENTED_EDGE('',*,*,#633,.F.);
#870=ORIENTED_EDGE('',*,*,#634,.F.);
#871=ORIENTED_EDGE('',*,*,#635,.F.);
#872=ORIENTED_EDGE('',*,*,#636,.F.);
#873=ORIENTED_EDGE('',*,*,#637,.F.);
#874=ORIENTED_EDGE('',*,*,#638,.F.);
#875=ORIENTED_EDGE('',*,*,#639,.F.);
#876=ORIENTED_EDGE('',*,*,#640,.F.);
#877=ORIENTED_EDGE('',*,*,#641,.F.);
#878=ORIENTED_EDGE('',*,*,#642,.F.);
#879=ORIENTED_EDGE('',*,*,#643,.F.);
#880=ORIENTED_EDGE('',*,*,#644,.T.);
#881=ORIENTED_EDGE('',*,*,#645,.T.);
#882=ORIENTED_EDGE('',*,*,#642,.T.);
#883=ORIENTED_EDGE('',*,*,#646,.T.);
#884=ORIENTED_EDGE('',*,*,#643,.T.);
#885=ORIENTED_EDGE('',*,*,#647,.T.);
#886=ORIENTED_EDGE('',*,*,#636,.T.);
#887=ORIENTED_EDGE('',*,*,#648,.T.);
#888=ORIENTED_EDGE('',*,*,#639,.T.);
#889=ORIENTED_EDGE('',*,*,#649,.T.);
#890=ORIENTED_EDGE('',*,*,#641,.T.);
#891=ORIENTED_EDGE('',*,*,#650,.T.);
#892=ORIENTED_EDGE('',*,*,#632,.T.);
#893=ORIENTED_EDGE('',*,*,#651,.T.);
#894=ORIENTED_EDGE('',*,*,#640,.T.);
#895=ORIENTED_EDGE('',*,*,#652,.T.);
#896=ORIENTED_EDGE('',*,*,#653,.T.);
#897=ORIENTED_EDGE('',*,*,#654,.T.);
#898=ORIENTED_EDGE('',*,*,#638,.T.);
#899=ORIENTED_EDGE('',*,*,#655,.T.);
#900=ORIENTED_EDGE('',*,*,#656,.T.);
#901=ORIENTED_EDGE('',*,*,#657,.T.);
#902=ORIENTED_EDGE('',*,*,#637,.T.);
#903=ORIENTED_EDGE('',*,*,#658,.T.);
#904=ORIENTED_EDGE('',*,*,#633,.T.);
#905=ORIENTED_EDGE('',*,*,#659,.T.);
#906=ORIENTED_EDGE('',*,*,#635,.T.);
#907=ORIENTED_EDGE('',*,*,#660,.T.);
#908=ORIENTED_EDGE('',*,*,#661,.T.);
#909=ORIENTED_EDGE('',*,*,#662,.T.);
#910=ORIENTED_EDGE('',*,*,#634,.T.);
#911=ORIENTED_EDGE('',*,*,#663,.T.);
#912=ORIENTED_EDGE('',*,*,#655,.F.);
#913=ORIENTED_EDGE('',*,*,#651,.F.);
#914=ORIENTED_EDGE('',*,*,#662,.F.);
#915=ORIENTED_EDGE('',*,*,#664,.T.);
#916=ORIENTED_EDGE('',*,*,#663,.F.);
#917=ORIENTED_EDGE('',*,*,#660,.F.);
#918=ORIENTED_EDGE('',*,*,#657,.F.);
#919=ORIENTED_EDGE('',*,*,#665,.T.);
#920=ORIENTED_EDGE('',*,*,#653,.F.);
#921=ORIENTED_EDGE('',*,*,#664,.F.);
#922=ORIENTED_EDGE('',*,*,#661,.F.);
#923=ORIENTED_EDGE('',*,*,#665,.F.);
#924=ORIENTED_EDGE('',*,*,#656,.F.);
#925=ORIENTED_EDGE('',*,*,#666,.T.);
#926=ORIENTED_EDGE('',*,*,#644,.F.);
#927=ORIENTED_EDGE('',*,*,#667,.T.);
#928=ORIENTED_EDGE('',*,*,#624,.T.);
#929=ORIENTED_EDGE('',*,*,#578,.T.);
#930=ORIENTED_EDGE('',*,*,#629,.T.);
#931=ORIENTED_EDGE('',*,*,#626,.T.);
#932=ORIENTED_EDGE('',*,*,#648,.F.);
#933=ORIENTED_EDGE('',*,*,#659,.F.);
#934=ORIENTED_EDGE('',*,*,#652,.F.);
#935=ORIENTED_EDGE('',*,*,#650,.F.);
#936=ORIENTED_EDGE('',*,*,#645,.F.);
#937=ORIENTED_EDGE('',*,*,#666,.F.);
#938=ORIENTED_EDGE('',*,*,#658,.F.);
#939=ORIENTED_EDGE('',*,*,#647,.F.);
#940=ORIENTED_EDGE('',*,*,#654,.F.);
#941=ORIENTED_EDGE('',*,*,#667,.F.);
#942=ORIENTED_EDGE('',*,*,#646,.F.);
#943=ORIENTED_EDGE('',*,*,#649,.F.);
#944=ORIENTED_EDGE('',*,*,#631,.T.);
#945=ORIENTED_EDGE('',*,*,#668,.T.);
#946=ORIENTED_EDGE('',*,*,#545,.T.);
#947=ORIENTED_EDGE('',*,*,#669,.T.);
#948=ORIENTED_EDGE('',*,*,#630,.T.);
#949=ORIENTED_EDGE('',*,*,#580,.T.);
#950=ORIENTED_EDGE('',*,*,#546,.F.);
#951=ORIENTED_EDGE('',*,*,#668,.F.);
#952=ORIENTED_EDGE('',*,*,#628,.T.);
#953=ORIENTED_EDGE('',*,*,#669,.F.);
#954=ORIENTED_EDGE('',*,*,#544,.T.);
#955=ORIENTED_EDGE('',*,*,#569,.T.);
#956=TOROIDAL_SURFACE('',#1040,3.5,1.);
#957=ADVANCED_FACE('',(#290),#956,.T.);
#958=ADVANCED_FACE('',(#291),#246,.F.);
#959=ADVANCED_FACE('',(#292),#247,.T.);
#960=ADVANCED_FACE('',(#293),#248,.T.);
#961=ADVANCED_FACE('',(#294),#43,.T.);
#962=ADVANCED_FACE('',(#295),#44,.T.);
#963=ADVANCED_FACE('',(#296),#45,.T.);
#964=ADVANCED_FACE('',(#297),#249,.F.);
#965=ADVANCED_FACE('',(#298),#250,.T.);
#966=ADVANCED_FACE('',(#299),#251,.T.);
#967=ADVANCED_FACE('',(#300),#46,.T.);
#968=ADVANCED_FACE('',(#301),#252,.T.);
#969=ADVANCED_FACE('',(#302),#253,.T.);
#970=ADVANCED_FACE('',(#303),#254,.F.);
#971=ADVANCED_FACE('',(#304),#255,.F.);
#972=ADVANCED_FACE('',(#305),#47,.T.);
#973=ADVANCED_FACE('',(#306),#256,.T.);
#974=ADVANCED_FACE('',(#307),#257,.T.);
#975=ADVANCED_FACE('',(#308),#258,.T.);
#976=ADVANCED_FACE('',(#309),#259,.T.);
#977=ADVANCED_FACE('',(#310),#260,.T.);
#978=ADVANCED_FACE('',(#311),#261,.T.);
#979=ADVANCED_FACE('',(#312),#262,.T.);
#980=ADVANCED_FACE('',(#313),#263,.T.);
#981=ADVANCED_FACE('',(#314),#264,.T.);
#982=ADVANCED_FACE('',(#315),#265,.T.);
#983=ADVANCED_FACE('',(#316),#266,.T.);
#984=ADVANCED_FACE('',(#317),#267,.T.);
#985=ADVANCED_FACE('',(#318),#268,.T.);
#986=ADVANCED_FACE('',(#319),#269,.T.);
#987=ADVANCED_FACE('',(#320,#25),#270,.F.);
#988=ADVANCED_FACE('',(#321),#271,.T.);
#989=ADVANCED_FACE('',(#322),#272,.F.);
#990=ADVANCED_FACE('',(#323),#273,.F.);
#991=ADVANCED_FACE('',(#324),#48,.T.);
#992=ADVANCED_FACE('',(#325),#21,.T.);
#993=ADVANCED_FACE('',(#326),#22,.T.);
#994=ADVANCED_FACE('',(#327),#23,.T.);
#995=ADVANCED_FACE('',(#328),#24,.T.);
#996=ADVANCED_FACE('',(#329),#49,.T.);
#997=ADVANCED_FACE('',(#330),#19,.F.);
#998=ADVANCED_FACE('',(#331),#50,.T.);
#999=ADVANCED_FACE('',(#332),#20,.F.);
#1000=ADVANCED_FACE('',(#333),#51,.T.);
#1001=ADVANCED_FACE('',(#334),#52,.T.);
#1002=ADVANCED_FACE('',(#335),#53,.T.);
#1003=ADVANCED_FACE('',(#336),#54,.T.);
#1004=ADVANCED_FACE('',(#337),#274,.T.);
#1005=ADVANCED_FACE('',(#338),#275,.T.);
#1006=ADVANCED_FACE('',(#339,#26),#276,.T.);
#1007=ADVANCED_FACE('',(#340),#55,.F.);
#1008=ADVANCED_FACE('',(#341),#277,.F.);
#1009=ADVANCED_FACE('',(#342),#278,.T.);
#1010=ADVANCED_FACE('',(#343),#279,.F.);
#1011=ADVANCED_FACE('',(#344),#280,.T.);
#1012=ADVANCED_FACE('',(#345),#281,.T.);
#1013=CLOSED_SHELL('',(#957));
#1014=CLOSED_SHELL('',(#958,#959,#960,#961,#962,#963,#964,#965,#966,#967,
#968,#969,#970,#971,#972,#973,#974,#975,#976,#977,#978,#979,#980,#981,#982,
#983,#984,#985,#986,#987,#988,#989,#990,#991,#992,#993,#994,#995,#996,#997,
#998,#999,#1000,#1001,#1002,#1003,#1004,#1005,#1006,#1007,#1008,#1009,#1010,
#1011,#1012));
#1015=DERIVED_UNIT_ELEMENT(#1019,1.);
#1016=DERIVED_UNIT_ELEMENT(#1820,-3.);
#1017=DERIVED_UNIT_ELEMENT(#1019,1.);
#1018=DERIVED_UNIT_ELEMENT(#1820,-3.);
#1019=(
MASS_UNIT()
NAMED_UNIT(*)
SI_UNIT(.KILO.,.GRAM.)
);
#1020=DERIVED_UNIT((#1015,#1016));
#1021=DERIVED_UNIT((#1017,#1018));
#1022=MEASURE_REPRESENTATION_ITEM('density measure',
POSITIVE_RATIO_MEASURE(7850.),#1020);
#1023=MEASURE_REPRESENTATION_ITEM('density measure',
POSITIVE_RATIO_MEASURE(7850.),#1021);
#1024=PROPERTY_DEFINITION_REPRESENTATION(#1034,#1028);
#1025=PROPERTY_DEFINITION_REPRESENTATION(#1035,#1029);
#1026=PROPERTY_DEFINITION_REPRESENTATION(#1036,#1030);
#1027=PROPERTY_DEFINITION_REPRESENTATION(#1037,#1031);
#1028=REPRESENTATION('material name',(#1032),#1816);
#1029=REPRESENTATION('density',(#1022),#1816);
#1030=REPRESENTATION('material name',(#1033),#1817);
#1031=REPRESENTATION('density',(#1023),#1817);
#1032=DESCRIPTIVE_REPRESENTATION_ITEM('Steel','Steel');
#1033=DESCRIPTIVE_REPRESENTATION_ITEM('Steel','Steel');
#1034=PROPERTY_DEFINITION('material property','material name',#1836);
#1035=PROPERTY_DEFINITION('material property','density of part',#1836);
#1036=PROPERTY_DEFINITION('material property','material name',#1837);
#1037=PROPERTY_DEFINITION('material property','density of part',#1837);
#1038=AXIS2_PLACEMENT_3D('',#1442,#1141,#1142);
#1039=AXIS2_PLACEMENT_3D('',#1443,#1143,#1144);
#1040=AXIS2_PLACEMENT_3D('',#1444,#1145,#1146);
#1041=AXIS2_PLACEMENT_3D('',#1446,#1147,#1148);
#1042=AXIS2_PLACEMENT_3D('',#1447,#1149,#1150);
#1043=AXIS2_PLACEMENT_3D('',#1448,#1151,#1152);
#1044=AXIS2_PLACEMENT_3D('',#1449,#1153,#1154);
#1045=AXIS2_PLACEMENT_3D('',#1456,#1157,#1158);
#1046=AXIS2_PLACEMENT_3D('',#1458,#1160,#1161);
#1047=AXIS2_PLACEMENT_3D('',#1464,#1165,#1166);
#1048=AXIS2_PLACEMENT_3D('',#1470,#1170,#1171);
#1049=AXIS2_PLACEMENT_3D('',#1485,#1173,#1174);
#1050=AXIS2_PLACEMENT_3D('',#1502,#1177,#1178);
#1051=AXIS2_PLACEMENT_3D('',#1519,#1181,#1182);
#1052=AXIS2_PLACEMENT_3D('',#1522,#1184,#1185);
#1053=AXIS2_PLACEMENT_3D('',#1524,#1186,#1187);
#1054=AXIS2_PLACEMENT_3D('',#1537,#1189,#1190);
#1055=AXIS2_PLACEMENT_3D('',#1539,#1191,#1192);
#1056=AXIS2_PLACEMENT_3D('',#1542,#1194,#1195);
#1057=AXIS2_PLACEMENT_3D('',#1543,#1196,#1197);
#1058=AXIS2_PLACEMENT_3D('',#1545,#1198,#1199);
#1059=AXIS2_PLACEMENT_3D('',#1548,#1201,#1202);
#1060=AXIS2_PLACEMENT_3D('',#1549,#1203,#1204);
#1061=AXIS2_PLACEMENT_3D('',#1555,#1208,#1209);
#1062=AXIS2_PLACEMENT_3D('',#1558,#1211,#1212);
#1063=AXIS2_PLACEMENT_3D('',#1559,#1213,#1214);
#1064=AXIS2_PLACEMENT_3D('',#1561,#1216,#1217);
#1065=AXIS2_PLACEMENT_3D('',#1565,#1219,#1220);
#1066=AXIS2_PLACEMENT_3D('',#1567,#1222,#1223);
#1067=AXIS2_PLACEMENT_3D('',#1571,#1226,#1227);
#1068=AXIS2_PLACEMENT_3D('',#1576,#1230,#1231);
#1069=AXIS2_PLACEMENT_3D('',#1577,#1232,#1233);
#1070=AXIS2_PLACEMENT_3D('',#1579,#1235,#1236);
#1071=AXIS2_PLACEMENT_3D('',#1587,#1241,#1242);
#1072=AXIS2_PLACEMENT_3D('',#1590,#1244,#1245);
#1073=AXIS2_PLACEMENT_3D('',#1591,#1246,#1247);
#1074=AXIS2_PLACEMENT_3D('',#1594,#1248,#1249);
#1075=AXIS2_PLACEMENT_3D('',#1600,#1253,#1254);
#1076=AXIS2_PLACEMENT_3D('',#1606,#1258,#1259);
#1077=AXIS2_PLACEMENT_3D('',#1608,#1260,#1261);
#1078=AXIS2_PLACEMENT_3D('',#1612,#1264,#1265);
#1079=AXIS2_PLACEMENT_3D('',#1618,#1269,#1270);
#1080=AXIS2_PLACEMENT_3D('',#1620,#1271,#1272);
#1081=AXIS2_PLACEMENT_3D('',#1624,#1275,#1276);
#1082=AXIS2_PLACEMENT_3D('',#1626,#1277,#1278);
#1083=AXIS2_PLACEMENT_3D('',#1630,#1281,#1282);
#1084=AXIS2_PLACEMENT_3D('',#1636,#1286,#1287);
#1085=AXIS2_PLACEMENT_3D('',#1638,#1288,#1289);
#1086=AXIS2_PLACEMENT_3D('',#1642,#1292,#1293);
#1087=AXIS2_PLACEMENT_3D('',#1648,#1297,#1298);
#1088=AXIS2_PLACEMENT_3D('',#1650,#1299,#1300);
#1089=AXIS2_PLACEMENT_3D('',#1654,#1303,#1304);
#1090=AXIS2_PLACEMENT_3D('',#1660,#1308,#1309);
#1091=AXIS2_PLACEMENT_3D('',#1662,#1310,#1311);
#1092=AXIS2_PLACEMENT_3D('',#1666,#1314,#1315);
#1093=AXIS2_PLACEMENT_3D('',#1668,#1316,#1317);
#1094=AXIS2_PLACEMENT_3D('',#1672,#1320,#1321);
#1095=AXIS2_PLACEMENT_3D('',#1675,#1324,#1325);
#1096=AXIS2_PLACEMENT_3D('',#1676,#1326,#1327);
#1097=AXIS2_PLACEMENT_3D('',#1680,#1330,#1331);
#1098=AXIS2_PLACEMENT_3D('',#1684,#1334,#1335);
#1099=AXIS2_PLACEMENT_3D('',#1691,#1340,#1341);
#1100=AXIS2_PLACEMENT_3D('',#1692,#1342,#1343);
#1101=AXIS2_PLACEMENT_3D('',#1695,#1344,#1345);
#1102=AXIS2_PLACEMENT_3D('',#1697,#1346,#1347);
#1103=AXIS2_PLACEMENT_3D('',#1698,#1348,#1349);
#1104=AXIS2_PLACEMENT_3D('',#1699,#1350,#1351);
#1105=AXIS2_PLACEMENT_3D('',#1702,#1352,#1353);
#1106=AXIS2_PLACEMENT_3D('',#1704,#1354,#1355);
#1107=AXIS2_PLACEMENT_3D('',#1705,#1356,#1357);
#1108=AXIS2_PLACEMENT_3D('',#1706,#1358,#1359);
#1109=AXIS2_PLACEMENT_3D('',#1709,#1360,#1361);
#1110=AXIS2_PLACEMENT_3D('',#1711,#1362,#1363);
#1111=AXIS2_PLACEMENT_3D('',#1712,#1364,#1365);
#1112=AXIS2_PLACEMENT_3D('',#1713,#1366,#1367);
#1113=AXIS2_PLACEMENT_3D('',#1716,#1368,#1369);
#1114=AXIS2_PLACEMENT_3D('',#1718,#1370,#1371);
#1115=AXIS2_PLACEMENT_3D('',#1719,#1372,#1373);
#1116=AXIS2_PLACEMENT_3D('',#1720,#1374,#1375);
#1117=AXIS2_PLACEMENT_3D('',#1723,#1376,#1377);
#1118=AXIS2_PLACEMENT_3D('',#1746,#1380,#1381);
#1119=AXIS2_PLACEMENT_3D('',#1747,#1382,#1383);
#1120=AXIS2_PLACEMENT_3D('',#1748,#1384,#1385);
#1121=AXIS2_PLACEMENT_3D('',#1771,#1388,#1389);
#1122=AXIS2_PLACEMENT_3D('',#1772,#1390,#1391);
#1123=AXIS2_PLACEMENT_3D('',#1773,#1392,#1393);
#1124=AXIS2_PLACEMENT_3D('',#1776,#1394,#1395);
#1125=AXIS2_PLACEMENT_3D('',#1779,#1398,#1399);
#1126=AXIS2_PLACEMENT_3D('',#1782,#1400,#1401);
#1127=AXIS2_PLACEMENT_3D('',#1785,#1404,#1405);
#1128=AXIS2_PLACEMENT_3D('',#1788,#1408,#1409);
#1129=AXIS2_PLACEMENT_3D('',#1791,#1410,#1411);
#1130=AXIS2_PLACEMENT_3D('',#1794,#1414,#1415);
#1131=AXIS2_PLACEMENT_3D('',#1796,#1417,#1418);
#1132=AXIS2_PLACEMENT_3D('',#1798,#1420,#1421);
#1133=AXIS2_PLACEMENT_3D('',#1801,#1424,#1425);
#1134=AXIS2_PLACEMENT_3D('',#1802,#1426,#1427);
#1135=AXIS2_PLACEMENT_3D('',#1803,#1428,#1429);
#1136=AXIS2_PLACEMENT_3D('',#1804,#1430,#1431);
#1137=AXIS2_PLACEMENT_3D('',#1807,#1434,#1435);
#1138=AXIS2_PLACEMENT_3D('',#1808,#1436,#1437);
#1139=AXIS2_PLACEMENT_3D('',#1809,#1438,#1439);
#1140=AXIS2_PLACEMENT_3D('',#1810,#1440,#1441);
#1141=DIRECTION('axis',(0.,0.,1.));
#1142=DIRECTION('refdir',(1.,0.,0.));
#1143=DIRECTION('axis',(0.,0.,1.));
#1144=DIRECTION('refdir',(1.,0.,0.));
#1145=DIRECTION('center_axis',(0.,-1.,0.));
#1146=DIRECTION('ref_axis',(0.,0.,-1.));
#1147=DIRECTION('center_axis',(-1.,0.,0.));
#1148=DIRECTION('ref_axis',(0.,0.,1.));
#1149=DIRECTION('center_axis',(0.,1.,0.));
#1150=DIRECTION('ref_axis',(0.,0.,-1.));
#1151=DIRECTION('axis',(0.,0.,1.));
#1152=DIRECTION('refdir',(1.,0.,0.));
#1153=DIRECTION('center_axis',(0.,1.,0.));
#1154=DIRECTION('ref_axis',(1.,0.,0.));
#1155=DIRECTION('',(-0.999999984783005,0.,-0.000174453401030428));
#1156=DIRECTION('',(-2.45084308380896E-16,0.,-1.));
#1157=DIRECTION('center_axis',(0.,-1.,0.));
#1158=DIRECTION('ref_axis',(1.,0.,0.));
#1159=DIRECTION('',(0.,0.,1.));
#1160=DIRECTION('center_axis',(1.,0.,-2.45084308380896E-16));
#1161=DIRECTION('ref_axis',(-2.45084308380896E-16,0.,-1.));
#1162=DIRECTION('',(-3.83396099835504E-17,-0.987688355256985,-0.156434372468943));
#1163=DIRECTION('',(0.,0.,-1.));
#1164=DIRECTION('',(0.,1.,0.));
#1165=DIRECTION('center_axis',(-1.,0.,0.));
#1166=DIRECTION('ref_axis',(0.,0.,1.));
#1167=DIRECTION('',(0.,0.987688355256985,0.156434372468943));
#1168=DIRECTION('',(0.,-1.,0.));
#1169=DIRECTION('',(0.,0.,1.));
#1170=DIRECTION('center_axis',(0.,1.,0.));
#1171=DIRECTION('ref_axis',(1.,0.,0.));
#1172=DIRECTION('',(0.,-1.,0.));
#1173=DIRECTION('center_axis',(0.,-1.,0.));
#1174=DIRECTION('ref_axis',(1.,0.,0.));
#1175=DIRECTION('',(0.,1.,0.));
#1176=DIRECTION('',(0.,1.,0.));
#1177=DIRECTION('center_axis',(0.,-1.,0.));
#1178=DIRECTION('ref_axis',(1.,0.,0.));
#1179=DIRECTION('',(0.,1.,0.));
#1180=DIRECTION('',(0.,-1.,0.));
#1181=DIRECTION('center_axis',(0.,-1.,0.));
#1182=DIRECTION('ref_axis',(1.,0.,0.));
#1183=DIRECTION('',(0.,-1.,0.));
#1184=DIRECTION('center_axis',(0.,1.,0.));
#1185=DIRECTION('ref_axis',(1.,0.,0.));
#1186=DIRECTION('center_axis',(0.,-1.,0.));
#1187=DIRECTION('ref_axis',(1.,0.,0.));
#1188=DIRECTION('',(0.,1.,0.));
#1189=DIRECTION('center_axis',(0.,0.,1.));
#1190=DIRECTION('ref_axis',(-0.174621641058082,-0.984635608981405,0.));
#1191=DIRECTION('center_axis',(0.000172305592796895,0.156434370146736,-0.987688340595138));
#1192=DIRECTION('ref_axis',(-0.00108789469750911,-0.987687741461189,-0.156434465040231));
#1193=DIRECTION('',(0.,0.,1.));
#1194=DIRECTION('center_axis',(0.,0.,-1.));
#1195=DIRECTION('ref_axis',(-0.174621641058082,-0.984635608981405,0.));
#1196=DIRECTION('center_axis',(0.,0.,1.));
#1197=DIRECTION('ref_axis',(-0.174621641058082,-0.984635608981405,0.));
#1198=DIRECTION('center_axis',(0.,0.,-1.));
#1199=DIRECTION('ref_axis',(-0.174621641058082,-0.984635608981405,0.));
#1200=DIRECTION('',(0.,0.,1.));
#1201=DIRECTION('center_axis',(0.000172305592796895,0.156434370146736,-0.987688340595138));
#1202=DIRECTION('ref_axis',(-0.00108789469750911,-0.987687741461189,-0.156434465040231));
#1203=DIRECTION('center_axis',(0.,1.,0.));
#1204=DIRECTION('ref_axis',(1.,0.,0.));
#1205=DIRECTION('',(0.,0.,-1.));
#1206=DIRECTION('',(1.,0.,0.));
#1207=DIRECTION('',(-1.,0.,0.));
#1208=DIRECTION('center_axis',(0.,0.,1.));
#1209=DIRECTION('ref_axis',(1.,0.,0.));
#1210=DIRECTION('',(0.317610438900707,-0.948221286990173,0.));
#1211=DIRECTION('center_axis',(0.,0.,1.));
#1212=DIRECTION('ref_axis',(-0.174621641058082,-0.984635608981405,0.));
#1213=DIRECTION('center_axis',(0.,0.,-1.));
#1214=DIRECTION('ref_axis',(-1.,0.,0.));
#1215=DIRECTION('',(-0.317610438900707,0.948221286990173,0.));
#1216=DIRECTION('center_axis',(0.,0.,1.));
#1217=DIRECTION('ref_axis',(-0.174621641058082,-0.984635608981405,0.));
#1218=DIRECTION('',(0.,0.,1.));
#1219=DIRECTION('center_axis',(0.000172305592796895,0.156434370146736,0.987688340595138));
#1220=DIRECTION('ref_axis',(-0.00108789469750911,-0.987687741461189,0.156434465040231));
#1221=DIRECTION('',(0.,0.,1.));
#1222=DIRECTION('center_axis',(0.,0.,-1.));
#1223=DIRECTION('ref_axis',(-1.,0.,0.));
#1224=DIRECTION('',(-0.135113204733313,-0.990830168044299,0.));
#1225=DIRECTION('',(-1.,0.,0.));
#1226=DIRECTION('center_axis',(0.,0.,1.));
#1227=DIRECTION('ref_axis',(1.,0.,0.));
#1228=DIRECTION('',(0.135113204733313,0.990830168044299,0.));
#1229=DIRECTION('',(1.,0.,0.));
#1230=DIRECTION('center_axis',(0.,0.,1.));
#1231=DIRECTION('ref_axis',(-0.174621641058082,-0.984635608981405,0.));
#1232=DIRECTION('center_axis',(0.,1.,0.));
#1233=DIRECTION('ref_axis',(1.,0.,0.));
#1234=DIRECTION('',(0.,0.,1.));
#1235=DIRECTION('center_axis',(-0.990830168044299,0.135113204733314,0.));
#1236=DIRECTION('ref_axis',(-0.135113204733313,-0.990830168044299,0.));
#1237=DIRECTION('',(0.,0.,1.));
#1238=DIRECTION('',(-0.133479076055675,-0.978846557741617,0.155057256046635));
#1239=DIRECTION('',(0.,0.,1.));
#1240=DIRECTION('',(0.133479076055675,0.978846557741617,0.155057256046635));
#1241=DIRECTION('center_axis',(0.,0.,1.));
#1242=DIRECTION('ref_axis',(-0.174621641058082,-0.984635608981405,0.));
#1243=DIRECTION('',(0.,0.,-1.));
#1244=DIRECTION('center_axis',(0.000172305592796895,0.156434370146736,0.987688340595138));
#1245=DIRECTION('ref_axis',(-0.00108789469750911,-0.987687741461189,0.156434465040231));
#1246=DIRECTION('center_axis',(1.20024110770287E-15,0.,1.));
#1247=DIRECTION('ref_axis',(1.,0.,-1.20024110770287E-15));
#1248=DIRECTION('center_axis',(1.20024110770287E-15,0.,1.));
#1249=DIRECTION('ref_axis',(-0.174621641058082,-0.984635608981405,0.));
#1250=DIRECTION('',(0.,1.,0.));
#1251=DIRECTION('',(1.,0.,-1.20024110770287E-15));
#1252=DIRECTION('',(0.,1.,0.));
#1253=DIRECTION('center_axis',(1.,0.,0.));
#1254=DIRECTION('ref_axis',(0.,0.,-1.));
#1255=DIRECTION('',(0.,0.,-1.));
#1256=DIRECTION('',(0.,1.,0.));
#1257=DIRECTION('',(0.,0.,-1.));
#1258=DIRECTION('center_axis',(-2.39960902993219E-15,0.,-1.));
#1259=DIRECTION('ref_axis',(-1.,0.,2.39960902993219E-15));
#1260=DIRECTION('center_axis',(-2.39960902993219E-15,0.,-1.));
#1261=DIRECTION('ref_axis',(-0.174621641058082,-0.984635608981405,0.));
#1262=DIRECTION('',(0.,1.,0.));
#1263=DIRECTION('',(-1.,0.,2.39960902993219E-15));
#1264=DIRECTION('center_axis',(1.,0.,0.));
#1265=DIRECTION('ref_axis',(0.,0.,-1.));
#1266=DIRECTION('',(0.,0.,-1.));
#1267=DIRECTION('',(0.,1.,0.));
#1268=DIRECTION('',(0.,0.,-1.));
#1269=DIRECTION('center_axis',(1.22949339598223E-7,0.,-0.999999999999992));
#1270=DIRECTION('ref_axis',(-0.999999999999993,0.,-1.22949339598223E-7));
#1271=DIRECTION('center_axis',(1.22949339598223E-7,0.,-0.999999999999992));
#1272=DIRECTION('ref_axis',(0.984635608981398,-0.174621641058081,1.21060297869157E-7));
#1273=DIRECTION('',(0.,1.,0.));
#1274=DIRECTION('',(-0.999999999999993,0.,-1.22949339598223E-7));
#1275=DIRECTION('center_axis',(4.44089209850064E-15,0.,-1.));
#1276=DIRECTION('ref_axis',(-1.,0.,-4.44089209850064E-15));
#1277=DIRECTION('center_axis',(4.44089209850064E-15,0.,-1.));
#1278=DIRECTION('ref_axis',(-0.174621641058082,-0.984635608981405,0.));
#1279=DIRECTION('',(0.,1.,0.));
#1280=DIRECTION('',(-1.,0.,-4.44089209850064E-15));
#1281=DIRECTION('center_axis',(-1.,0.,1.20024109573783E-15));
#1282=DIRECTION('ref_axis',(1.20024109573783E-15,0.,1.));
#1283=DIRECTION('',(0.,0.,1.));
#1284=DIRECTION('',(0.,1.,0.));
#1285=DIRECTION('',(1.20024109573783E-15,0.,1.));
#1286=DIRECTION('center_axis',(0.,0.,-1.));
#1287=DIRECTION('ref_axis',(-1.,0.,0.));
#1288=DIRECTION('center_axis',(0.,0.,-1.));
#1289=DIRECTION('ref_axis',(-0.174621641058082,-0.984635608981405,0.));
#1290=DIRECTION('',(0.,1.,0.));
#1291=DIRECTION('',(-1.,0.,0.));
#1292=DIRECTION('center_axis',(-1.,0.,0.));
#1293=DIRECTION('ref_axis',(0.,0.,1.));
#1294=DIRECTION('',(0.,0.,1.));
#1295=DIRECTION('',(0.,1.,0.));
#1296=DIRECTION('',(0.,0.,1.));
#1297=DIRECTION('center_axis',(6.00120553851436E-16,0.,1.));
#1298=DIRECTION('ref_axis',(1.,0.,-6.00120553851436E-16));
#1299=DIRECTION('center_axis',(6.00120553851436E-16,0.,1.));
#1300=DIRECTION('ref_axis',(-0.174621641058082,-0.984635608981405,0.));
#1301=DIRECTION('',(0.,1.,0.));
#1302=DIRECTION('',(1.,0.,-6.00120553851436E-16));
#1303=DIRECTION('center_axis',(-1.,0.,-1.20024110770287E-15));
#1304=DIRECTION('ref_axis',(-1.20024110770287E-15,0.,1.));
#1305=DIRECTION('',(0.,0.,1.));
#1306=DIRECTION('',(0.,1.,0.));
#1307=DIRECTION('',(-1.20024110770287E-15,0.,1.));
#1308=DIRECTION('center_axis',(0.,0.,1.));
#1309=DIRECTION('ref_axis',(1.,0.,0.));
#1310=DIRECTION('center_axis',(0.,0.,1.));
#1311=DIRECTION('ref_axis',(-0.174621641058082,-0.984635608981405,0.));
#1312=DIRECTION('',(0.,1.,0.));
#1313=DIRECTION('',(1.,0.,0.));
#1314=DIRECTION('center_axis',(-0.000363881166826008,0.,0.999999933795246));
#1315=DIRECTION('ref_axis',(0.999999933795246,0.,0.000363881166826008));
#1316=DIRECTION('center_axis',(-0.000363881166826008,0.,0.999999933795246));
#1317=DIRECTION('ref_axis',(-0.999999933795246,-4.6975068149911E-11,-0.000363881166826008));
#1318=DIRECTION('',(0.,1.,0.));
#1319=DIRECTION('',(0.999999933795246,0.,0.000363881166826008));
#1320=DIRECTION('center_axis',(0.999999933795246,0.,0.000363881166837343));
#1321=DIRECTION('ref_axis',(0.000363881166837343,0.,-0.999999933795246));
#1322=DIRECTION('',(0.00036388116665894,-3.13137902298882E-5,-0.999999933304969));
#1323=DIRECTION('',(0.000363881166837343,0.,-0.999999933795246));
#1324=DIRECTION('center_axis',(0.,1.,0.));
#1325=DIRECTION('ref_axis',(1.,0.,0.));
#1326=DIRECTION('center_axis',(-0.000172305592796895,-0.156434370146736,
0.987688340595138));
#1327=DIRECTION('ref_axis',(0.999999985063444,-1.35607360225655E-5,0.000172305592796895));
#1328=DIRECTION('',(-0.999999393397771,0.00110145544175692,2.74429222236291E-20));
#1329=DIRECTION('',(-0.314090608848297,0.937712886215201,0.148464246400485));
#1330=DIRECTION('center_axis',(0.948221286990173,0.317610438900707,0.));
#1331=DIRECTION('ref_axis',(-0.317610438900707,0.948221286990173,0.));
#1332=DIRECTION('',(0.,0.,-1.));
#1333=DIRECTION('',(-0.314090608848297,0.937712886215201,-0.148464246400485));
#1334=DIRECTION('center_axis',(0.000172305592796895,0.156434370146736,0.987688340595138));
#1335=DIRECTION('ref_axis',(0.999999985063444,-1.35607360225655E-5,-0.000172305592796895));
#1336=DIRECTION('',(3.83396099835504E-17,-0.987688355256985,0.156434372468943));
#1337=DIRECTION('',(0.999999393397771,-0.00110145544175692,2.74429222236291E-20));
#1338=DIRECTION('',(0.,0.987688355256985,-0.156434372468943));
#1339=DIRECTION('',(-0.999999984783005,0.,0.000174453401030428));
#1340=DIRECTION('center_axis',(0.,0.,1.));
#1341=DIRECTION('ref_axis',(-0.174621641058082,-0.984635608981405,0.));
#1342=DIRECTION('center_axis',(0.,0.,1.));
#1343=DIRECTION('ref_axis',(1.,0.,0.));
#1344=DIRECTION('center_axis',(-0.985300370029511,0.168754120597218,-0.0265561217268011));
#1345=DIRECTION('ref_axis',(0.168813657120997,0.985647984408954,0.));
#1346=DIRECTION('center_axis',(1.50093038071591E-15,1.10068227919165E-14,
1.));
#1347=DIRECTION('ref_axis',(-0.990830168044299,0.135113204733316,0.));
#1348=DIRECTION('center_axis',(0.133479076055741,0.978846557741608,-0.155057256046633));
#1349=DIRECTION('ref_axis',(0.000172305592796574,0.156434370146736,0.987688340595138));
#1350=DIRECTION('center_axis',(0.,0.,1.));
#1351=DIRECTION('ref_axis',(1.,0.,0.));
#1352=DIRECTION('center_axis',(5.47462776643766E-15,-9.3764908897234E-16,
-1.));
#1353=DIRECTION('ref_axis',(0.168813657120994,0.985647984408955,0.));
#1354=DIRECTION('center_axis',(-0.985300370029506,0.16875412059725,0.0265561217267674));
#1355=DIRECTION('ref_axis',(0.000172305592799347,0.156434370146734,-0.987688340595138));
#1356=DIRECTION('center_axis',(0.133479076055674,0.97884655774162,0.155057256046611));
#1357=DIRECTION('ref_axis',(-0.990830168044299,0.135113204733312,0.));
#1358=DIRECTION('center_axis',(0.,0.,1.));
#1359=DIRECTION('ref_axis',(1.,0.,0.));
#1360=DIRECTION('center_axis',(-0.314090608848298,0.93771288621521,-0.148464246400427));
#1361=DIRECTION('ref_axis',(0.948221286990173,0.317610438900706,0.));
#1362=DIRECTION('center_axis',(-5.84087056865119E-15,-3.99146684857873E-17,
1.));
#1363=DIRECTION('ref_axis',(-0.00683352525223695,0.99997665119373,0.));
#1364=DIRECTION('center_axis',(0.999975861474237,0.0068335198555427,-0.00125677175386667));
#1365=DIRECTION('ref_axis',(0.000172305592799347,0.156434370146739,0.987688340595137));
#1366=DIRECTION('center_axis',(0.,0.,1.));
#1367=DIRECTION('ref_axis',(1.,0.,0.));
#1368=DIRECTION('center_axis',(-1.15947798797166E-15,3.46160445417532E-15,
-1.));
#1369=DIRECTION('ref_axis',(0.948221286990173,0.317610438900707,0.));
#1370=DIRECTION('center_axis',(-0.314090608848352,0.937712886215183,0.148464246400483));
#1371=DIRECTION('ref_axis',(0.000172305592793798,0.156434370146735,-0.987688340595138));
#1372=DIRECTION('center_axis',(0.999975861474237,0.00683351985554825,0.00125677175386194));
#1373=DIRECTION('ref_axis',(-0.00683352525224236,0.99997665119373,0.));
#1374=DIRECTION('center_axis',(-0.314090608848297,0.937712886215201,0.148464246400485));
#1375=DIRECTION('ref_axis',(0.654500951525808,0.327145587036721,-0.6816188592859));
#1376=DIRECTION('center_axis',(0.00110145544175692,0.999999393397771,0.));
#1377=DIRECTION('ref_axis',(0.904629000296887,-0.000996409139572062,-0.426198755266462));
#1378=DIRECTION('',(-0.314090608848297,0.937712886215201,0.148464246400485));
#1379=DIRECTION('',(0.314090608848297,-0.937712886215201,-0.148464246400485));
#1380=DIRECTION('center_axis',(0.000172305592796895,0.156434370146736,-0.987688340595138));
#1381=DIRECTION('ref_axis',(-0.00108789469750792,-0.987687741461189,-0.156434465040231));
#1382=DIRECTION('center_axis',(-0.00017326304239468,-0.157303628203603,
0.987550271395791));
#1383=DIRECTION('ref_axis',(-0.00108774262043698,-0.987549672345595,-0.157303723624393));
#1384=DIRECTION('center_axis',(0.,0.,1.));
#1385=DIRECTION('ref_axis',(0.581342103590721,0.813659239849653,0.));
#1386=DIRECTION('',(0.,0.,-1.));
#1387=DIRECTION('',(0.,0.,1.));
#1388=DIRECTION('center_axis',(0.000172305592796895,0.156434370146736,0.987688340595138));
#1389=DIRECTION('ref_axis',(-0.00108789469750792,-0.987687741461189,0.156434465040231));
#1390=DIRECTION('center_axis',(-0.000173263042394727,-0.157303628203603,
-0.987550271395791));
#1391=DIRECTION('ref_axis',(-0.00108774262043698,-0.987549672345595,0.157303723624393));
#1392=DIRECTION('center_axis',(-0.314090608848297,0.937712886215201,-0.148464246400485));
#1393=DIRECTION('ref_axis',(0.654500951525807,0.327145587036721,0.6816188592859));
#1394=DIRECTION('center_axis',(0.00110145544175692,0.999999393397771,0.));
#1395=DIRECTION('ref_axis',(0.904629000296887,-0.000996409139572107,0.426198755266462));
#1396=DIRECTION('',(-0.314090608848297,0.937712886215201,-0.148464246400485));
#1397=DIRECTION('',(0.314090608848297,-0.937712886215201,0.148464246400485));
#1398=DIRECTION('center_axis',(0.133479076055675,0.978846557741617,0.155057256046635));
#1399=DIRECTION('ref_axis',(-0.693271158731926,0.204027578767103,-0.691193060998825));
#1400=DIRECTION('center_axis',(0.00110145544175692,0.999999393397771,0.));
#1401=DIRECTION('ref_axis',(-0.649360962366744,0.000715242599531133,-0.7604799990678));
#1402=DIRECTION('',(0.133479076055675,0.978846557741617,0.155057256046635));
#1403=DIRECTION('',(-0.133479076055675,-0.978846557741617,-0.155057256046635));
#1404=DIRECTION('center_axis',(0.,0.,1.));
#1405=DIRECTION('ref_axis',(-0.591422132589839,0.80636211535692,0.));
#1406=DIRECTION('',(0.,0.,-1.));
#1407=DIRECTION('',(0.,0.,1.));
#1408=DIRECTION('center_axis',(-0.133479076055675,-0.978846557741617,0.155057256046635));
#1409=DIRECTION('ref_axis',(-0.693271158731926,0.204027578767103,0.691193060998825));
#1410=DIRECTION('center_axis',(0.00110145544175692,0.999999393397771,0.));
#1411=DIRECTION('ref_axis',(-0.649360962366744,0.000715242599531133,0.7604799990678));
#1412=DIRECTION('',(0.133479076055675,0.978846557741617,-0.155057256046635));
#1413=DIRECTION('',(-0.133479076055675,-0.978846557741617,0.155057256046635));
#1414=DIRECTION('center_axis',(0.000172305592796895,0.156434370146736,0.987688340595138));
#1415=DIRECTION('ref_axis',(0.999999985063444,-1.35607360225655E-5,-0.000172305592796895));
#1416=DIRECTION('',(0.999999393397771,-0.00110145544175692,0.));
#1417=DIRECTION('center_axis',(-0.990830168044299,0.135113204733314,0.));
#1418=DIRECTION('ref_axis',(-0.135113204733313,-0.990830168044299,0.));
#1419=DIRECTION('',(0.,0.,1.));
#1420=DIRECTION('center_axis',(-0.00110145544175692,-0.999999393397771,
0.));
#1421=DIRECTION('ref_axis',(0.999999393397771,-0.00110145544175692,0.));
#1422=DIRECTION('',(0.999999393397771,-0.00110145544175692,0.));
#1423=DIRECTION('',(0.,0.,1.));
#1424=DIRECTION('center_axis',(0.,0.,1.));
#1425=DIRECTION('ref_axis',(-0.174621641058082,-0.984635608981405,0.));
#1426=DIRECTION('center_axis',(-0.000172305592796895,-0.156434370146736,
0.987688340595138));
#1427=DIRECTION('ref_axis',(0.999999985063444,-1.35607360225655E-5,0.000172305592796895));
#1428=DIRECTION('center_axis',(0.948221286990173,0.317610438900707,0.));
#1429=DIRECTION('ref_axis',(-0.317610438900707,0.948221286990173,0.));
#1430=DIRECTION('center_axis',(0.,1.,0.));
#1431=DIRECTION('ref_axis',(1.,0.,0.));
#1432=DIRECTION('',(0.,0.,1.));
#1433=DIRECTION('',(-2.45084308380896E-16,0.,-1.));
#1434=DIRECTION('center_axis',(-1.,0.,0.));
#1435=DIRECTION('ref_axis',(0.,0.,1.));
#1436=DIRECTION('center_axis',(1.,0.,-2.45084308380896E-16));
#1437=DIRECTION('ref_axis',(-2.45084308380896E-16,0.,-1.));
#1438=DIRECTION('',(0.,0.,1.));
#1439=DIRECTION('',(1.,0.,0.));
#1440=DIRECTION('',(0.,0.,1.));
#1441=DIRECTION('',(1.,0.,0.));
#1442=CARTESIAN_POINT('',(0.,0.,0.));
#1443=CARTESIAN_POINT('',(0.,0.,0.));
#1444=CARTESIAN_POINT('Origin',(8.09530597394757,7.,9.04161395674441));
#1445=CARTESIAN_POINT('',(8.09530597394757,7.,11.5416139567444));
#1446=CARTESIAN_POINT('Origin',(8.09530597394757,7.,12.5416139567444));
#1447=CARTESIAN_POINT('Origin',(8.09530597394757,7.,9.04161395674441));
#1448=CARTESIAN_POINT('',(0.,0.,0.));
#1449=CARTESIAN_POINT('Origin',(8.0953059739476,8.,4.40040687244787));
#1450=CARTESIAN_POINT('',(8.34530597394763,8.,2.28099574680541));
#1451=CARTESIAN_POINT('',(7.84530597394757,8.,2.28090852010356));
#1452=CARTESIAN_POINT('',(8.54767492764821,8.,2.28103105075818));
#1453=CARTESIAN_POINT('',(8.34530597394763,8.,6.55414536397787));
#1454=CARTESIAN_POINT('',(8.34530597394763,8.,5.47727611821287));
#1455=CARTESIAN_POINT('',(7.84530597394757,8.,6.55414536397786));
#1456=CARTESIAN_POINT('Origin',(8.09530597394757,8.,9.04161395674441));
#1457=CARTESIAN_POINT('',(7.84530597394757,8.,3.32353762668288));
#1458=CARTESIAN_POINT('Origin',(8.34530597394763,9.2,6.55414536397787));
#1459=CARTESIAN_POINT('',(8.34530597394763,9.42599430775866,2.5068509201414));
#1460=CARTESIAN_POINT('',(8.34530597394763,7.62137037507866,2.2210267419493));
#1461=CARTESIAN_POINT('',(8.34530597394763,9.42599430775865,6.55414536397787));
#1462=CARTESIAN_POINT('',(8.34530597394763,9.42599430775865,0.));
#1463=CARTESIAN_POINT('',(8.34530597394763,1.62,6.55414536397787));
#1464=CARTESIAN_POINT('Origin',(7.84530597394757,9.2,2.24666838091788));
#1465=CARTESIAN_POINT('',(7.84530597394757,9.46618179413213,2.5131287621158));
#1466=CARTESIAN_POINT('',(7.84530597394757,7.28861314665625,2.16823597982994));
#1467=CARTESIAN_POINT('',(7.84530597394757,9.46618179413214,6.55414536397786));
#1468=CARTESIAN_POINT('',(7.84530597394757,1.62,6.55414536397786));
#1469=CARTESIAN_POINT('',(7.84530597394757,9.46618179413214,0.));
#1470=CARTESIAN_POINT('Origin',(8.09530597394757,1.62,9.04161395674441));
#1471=CARTESIAN_POINT('',(10.5827745667141,9.28947397912774,8.79161395674393));
#1472=CARTESIAN_POINT('Ctrl Pts',(10.5827745667141,9.28947397912775,8.79161395674393));
#1473=CARTESIAN_POINT('Ctrl Pts',(10.558916550614,9.29055308498283,8.55422969380622));
#1474=CARTESIAN_POINT('Ctrl Pts',(10.4992132135436,9.29324027762993,8.31241409424932));
#1475=CARTESIAN_POINT('Ctrl Pts',(10.2776249139381,9.30381744497264,7.77728905164006));
#1476=CARTESIAN_POINT('Ctrl Pts',(10.0853741947539,9.31336809214152,7.49630581820881));
#1477=CARTESIAN_POINT('Ctrl Pts',(9.64145534480378,9.33794650191978,7.05207191525268));
#1478=CARTESIAN_POINT('Ctrl Pts',(9.36001742487984,9.35464818009734,6.85947423335617));
#1479=CARTESIAN_POINT('Ctrl Pts',(8.82446824756426,9.39043968752083,6.63767702257424));
#1480=CARTESIAN_POINT('Ctrl Pts',(8.58260200669253,9.40776259661207,6.57799451261389));
#1481=CARTESIAN_POINT('Ctrl Pts',(8.34530597398975,9.42599430775542,6.5541453639821));
#1482=CARTESIAN_POINT('',(10.5827745667141,8.,8.79161395674393));
#1483=CARTESIAN_POINT('',(10.5827745667141,1.62,8.79161395674393));
#1484=CARTESIAN_POINT('',(10.5827745667142,8.,9.29161395674394));
#1485=CARTESIAN_POINT('Origin',(8.09530597394757,8.,9.04161395674441));
#1486=CARTESIAN_POINT('',(10.5827745667142,9.28947397912774,9.29161395674393));
#1487=CARTESIAN_POINT('',(10.5827745667142,1.62,9.29161395674394));
#1488=CARTESIAN_POINT('',(8.34530597396869,9.42599430775542,11.5290825495067));
#1489=CARTESIAN_POINT('Ctrl Pts',(8.34530597398975,9.42599430775542,11.5290825495067));
#1490=CARTESIAN_POINT('Ctrl Pts',(8.58260200669253,9.40776259661207,11.5052334008749));
#1491=CARTESIAN_POINT('Ctrl Pts',(8.82446824756426,9.39043968752083,11.4455508909146));
#1492=CARTESIAN_POINT('Ctrl Pts',(9.36001742487983,9.35464818009734,11.2237536801327));
#1493=CARTESIAN_POINT('Ctrl Pts',(9.64145534480377,9.33794650191978,11.0311559982361));
#1494=CARTESIAN_POINT('Ctrl Pts',(10.0853741947539,9.31336809214152,10.58692209528));
#1495=CARTESIAN_POINT('Ctrl Pts',(10.2776249139381,9.30381744497264,10.3059388618488));
#1496=CARTESIAN_POINT('Ctrl Pts',(10.4992132135437,9.29324027762992,9.77081381923919));
#1497=CARTESIAN_POINT('Ctrl Pts',(10.5589165506142,9.29055308498282,9.52899821968195));
#1498=CARTESIAN_POINT('Ctrl Pts',(10.5827745667142,9.28947397912774,9.29161395674393));
#1499=CARTESIAN_POINT('',(8.34530597394763,8.,11.529082549511));
#1500=CARTESIAN_POINT('',(8.34530597394763,9.,11.529082549511));
#1501=CARTESIAN_POINT('',(7.84530597394757,8.,11.529082549511));
#1502=CARTESIAN_POINT('Origin',(8.09530597394757,8.,9.04161395674441));
#1503=CARTESIAN_POINT('',(7.84530597392344,9.46618179413619,11.5290825495061));
#1504=CARTESIAN_POINT('',(7.84530597394757,9.,11.529082549511));
#1505=CARTESIAN_POINT('',(5.60783738118097,9.68957927905742,9.29161395674393));
#1506=CARTESIAN_POINT('Ctrl Pts',(5.60783738118097,9.68957927905743,9.29161395674393));
#1507=CARTESIAN_POINT('Ctrl Pts',(5.63169621468637,9.6868160175871,9.52900635276331));
#1508=CARTESIAN_POINT('Ctrl Pts',(5.69139696517664,9.67988837309679,9.77075475454176));
#1509=CARTESIAN_POINT('Ctrl Pts',(5.91279263381814,9.65480999534919,10.3055435627365));
#1510=CARTESIAN_POINT('Ctrl Pts',(6.10477399165017,9.63344375663613,10.5862112327709));
#1511=CARTESIAN_POINT('Ctrl Pts',(6.54809354577618,9.58665278724561,11.0303389871901));
#1512=CARTESIAN_POINT('Ctrl Pts',(6.82941062292928,9.55809290905089,11.2230915274144));
#1513=CARTESIAN_POINT('Ctrl Pts',(7.36526168108191,9.50773511296952,11.4453119866892));
#1514=CARTESIAN_POINT('Ctrl Pts',(7.60748084642864,9.48614028567649,11.5051802248488));
#1515=CARTESIAN_POINT('Ctrl Pts',(7.84530597389931,9.46618179413619,11.5290825495061));
#1516=CARTESIAN_POINT('',(5.60783738118097,8.,9.29161395674394));
#1517=CARTESIAN_POINT('',(5.60783738118097,1.62,9.29161395674394));
#1518=CARTESIAN_POINT('',(5.59530597394757,8.,9.04161395674441));
#1519=CARTESIAN_POINT('Origin',(8.09530597394757,8.,9.04161395674441));
#1520=CARTESIAN_POINT('',(5.59530597394757,1.62,9.04161395674441));
#1521=CARTESIAN_POINT('',(5.59530597394757,1.62,9.04161395674441));
#1522=CARTESIAN_POINT('Origin',(8.09530597394757,1.62,9.04161395674441));
#1523=CARTESIAN_POINT('',(5.60783738118107,8.,8.79161395674393));
#1524=CARTESIAN_POINT('Origin',(8.09530597394757,8.,9.04161395674441));
#1525=CARTESIAN_POINT('',(5.60783738118107,9.68957927905741,8.79161395674393));
#1526=CARTESIAN_POINT('',(5.60783738118107,1.62,8.79161395674393));
#1527=CARTESIAN_POINT('Ctrl Pts',(7.84530597394757,9.46618179413214,6.55414536397786));
#1528=CARTESIAN_POINT('Ctrl Pts',(7.60748084646145,9.48614028567358,6.5780476886321));
#1529=CARTESIAN_POINT('Ctrl Pts',(7.36526168109731,9.50773511296808,6.63791592679324));
#1530=CARTESIAN_POINT('Ctrl Pts',(6.82941062292929,9.5580929090509,6.86013638607437));
#1531=CARTESIAN_POINT('Ctrl Pts',(6.54809354577618,9.58665278724561,7.05288892629868));
#1532=CARTESIAN_POINT('Ctrl Pts',(6.10477399165017,9.63344375663613,7.49701668071793));
#1533=CARTESIAN_POINT('Ctrl Pts',(5.91279263381814,9.65480999534919,7.77768435075234));
#1534=CARTESIAN_POINT('Ctrl Pts',(5.69139696517676,9.67988837309677,8.31247315894676));
#1535=CARTESIAN_POINT('Ctrl Pts',(5.63169621468653,9.68681601758708,8.55422156072486));
#1536=CARTESIAN_POINT('Ctrl Pts',(5.60783738118107,9.68957927905742,8.79161395674393));
#1537=CARTESIAN_POINT('Origin',(13.8002879198368,80.425669765381,0.));
#1538=CARTESIAN_POINT('',(13.8515504791843,9.21676501837841,2.47467285944086));
#1539=CARTESIAN_POINT('Origin',(13.8002879198368,80.425669765381,13.7530395994981));
#1540=CARTESIAN_POINT('',(13.8515504791843,9.21676501837841,8.79161395674393));
#1541=CARTESIAN_POINT('',(13.8515504791843,9.21676501837841,0.));
#1542=CARTESIAN_POINT('Origin',(13.8002879198368,80.425669765381,8.79161395674393));
#1543=CARTESIAN_POINT('Origin',(13.8002879198368,80.425669765381,0.));
#1544=CARTESIAN_POINT('',(2.39152080817977,10.1366181562602,8.79161395674393));
#1545=CARTESIAN_POINT('Origin',(13.8002879198368,80.425669765381,8.79161395674393));
#1546=CARTESIAN_POINT('',(2.39152080817977,10.1366181562602,2.61836395430646));
#1547=CARTESIAN_POINT('',(2.39152080817977,10.1366181562602,0.));
#1548=CARTESIAN_POINT('Origin',(13.8002879198368,80.425669765381,13.7530395994981));
#1549=CARTESIAN_POINT('Origin',(12.4354294041089,8.,9.04161395674393));
#1550=CARTESIAN_POINT('',(14.2591106941135,8.,9.29161395674394));
#1551=CARTESIAN_POINT('',(14.2591106941135,8.,8.79161395674393));
#1552=CARTESIAN_POINT('',(14.2591106941135,8.,4.52080697837197));
#1553=CARTESIAN_POINT('',(11.5091019854115,8.,9.29161395674394));
#1554=CARTESIAN_POINT('',(13.3617568228063,8.,8.79161395674393));
#1555=CARTESIAN_POINT('Origin',(10.5827745667142,8.5,9.29161395674394));
#1556=CARTESIAN_POINT('',(13.8515504791843,9.21676501837841,9.29161395674394));
#1557=CARTESIAN_POINT('',(15.3947202392264,4.60965443040163,9.29161395674394));
#1558=CARTESIAN_POINT('Origin',(13.8002879198368,80.425669765381,9.29161395674394));
#1559=CARTESIAN_POINT('Origin',(14.2880842415038,8.5,8.79161395674393));
#1560=CARTESIAN_POINT('',(15.5816093728038,4.05169967495152,8.79161395674393));
#1561=CARTESIAN_POINT('Origin',(13.8002879198368,80.425669765381,0.));
#1562=CARTESIAN_POINT('',(13.8515504791843,9.21676501837841,15.5253271405591));
#1563=CARTESIAN_POINT('',(13.8515504791843,9.21676501837841,0.));
#1564=CARTESIAN_POINT('',(8.34530597394763,9.42599430775864,15.4931490798586));
#1565=CARTESIAN_POINT('Origin',(13.8002879198368,80.425669765381,4.24696040050186));
#1566=CARTESIAN_POINT('',(8.34530597394763,9.42599430775865,0.));
#1567=CARTESIAN_POINT('Origin',(5.60783738118107,9.2,8.79161395674393));
#1568=CARTESIAN_POINT('',(2.10016378687157,8.,8.79161395674393));
#1569=CARTESIAN_POINT('',(2.42798409266174,10.4040155757946,8.79161395674393));
#1570=CARTESIAN_POINT('',(4.68150996247779,8.,8.79161395674393));
#1571=CARTESIAN_POINT('Origin',(1.90252770636796,9.2,9.29161395674394));
#1572=CARTESIAN_POINT('',(2.10016378687157,8.,9.29161395674394));
#1573=CARTESIAN_POINT('',(2.39152080817977,10.1366181562602,9.29161395674394));
#1574=CARTESIAN_POINT('',(2.39416280759752,10.155992818657,9.29161395674394));
#1575=CARTESIAN_POINT('',(2.82885512507124,8.,9.29161395674394));
#1576=CARTESIAN_POINT('Origin',(13.8002879198368,80.425669765381,9.29161395674394));
#1577=CARTESIAN_POINT('Origin',(3.75518254377451,8.,9.04161395674393));
#1578=CARTESIAN_POINT('',(2.10016378687157,8.,4.52080697837197));
#1579=CARTESIAN_POINT('Origin',(2.53112070200407,11.1603507109717,0.));
#1580=CARTESIAN_POINT('',(2.39152080817977,10.1366181562602,15.3816360456935));
#1581=CARTESIAN_POINT('',(2.39152080817977,10.1366181562602,0.));
#1582=CARTESIAN_POINT('',(1.009103130125,-0.00111148280819814,16.987534874212));
#1583=CARTESIAN_POINT('',(2.36129635497131,9.91497216606474,15.4167465732646));
#1584=CARTESIAN_POINT('',(1.009103130125,-0.00111148280819814,1.012465125788));
#1585=CARTESIAN_POINT('',(1.009103130125,-0.00111148280819706,0.));
#1586=CARTESIAN_POINT('',(2.17502426151581,8.54897681405776,2.36686865286097));
#1587=CARTESIAN_POINT('Origin',(13.8002879198368,80.425669765381,0.));
#1588=CARTESIAN_POINT('',(7.84530597394757,9.46618179413213,15.4868712378842));
#1589=CARTESIAN_POINT('',(7.84530597394757,9.46618179413214,0.));
#1590=CARTESIAN_POINT('Origin',(13.8002879198368,80.425669765381,4.24696040050186));
#1591=CARTESIAN_POINT('Origin',(5.84463278381593,1.62,8.64161395674394));
#1592=CARTESIAN_POINT('',(5.84463278381593,9.662555825459,8.64161395674394));
#1593=CARTESIAN_POINT('',(7.69463278381593,9.47898754219553,8.64161395674393));
#1594=CARTESIAN_POINT('Origin',(13.8002879198368,80.425669765381,8.64161395674394));
#1595=CARTESIAN_POINT('',(5.84463278381593,1.62,8.64161395674394));
#1596=CARTESIAN_POINT('',(5.84463278381593,1.62,8.64161395674394));
#1597=CARTESIAN_POINT('',(7.69463278381593,1.62,8.64161395674393));
#1598=CARTESIAN_POINT('',(7.69463278381593,1.62,8.64161395674393));
#1599=CARTESIAN_POINT('',(7.69463278381593,1.62,8.64161395674393));
#1600=CARTESIAN_POINT('Origin',(5.84463278381593,1.62,9.44161395674394));
#1601=CARTESIAN_POINT('',(5.84463278381593,9.662555825459,9.44161395674394));
#1602=CARTESIAN_POINT('',(5.84463278381593,9.662555825459,0.));
#1603=CARTESIAN_POINT('',(5.84463278381593,1.62,9.44161395674394));
#1604=CARTESIAN_POINT('',(5.84463278381593,1.62,9.44161395674394));
#1605=CARTESIAN_POINT('',(5.84463278381593,1.62,8.64161395674394));
#1606=CARTESIAN_POINT('Origin',(7.69530597395063,1.62,9.44161395674393));
#1607=CARTESIAN_POINT('',(7.69530597395063,9.47892961082505,9.44161395674393));
#1608=CARTESIAN_POINT('Origin',(13.8002879198368,80.425669765381,9.44161395674393));
#1609=CARTESIAN_POINT('',(7.69530597395063,1.62,9.44161395674393));
#1610=CARTESIAN_POINT('',(7.69530597395063,1.62,9.44161395674393));
#1611=CARTESIAN_POINT('',(7.69530597395063,1.62,9.44161395674393));
#1612=CARTESIAN_POINT('Origin',(7.69530597395063,1.62,11.2916139567439));
#1613=CARTESIAN_POINT('',(7.69530597395063,9.47892961082505,11.2916139567439));
#1614=CARTESIAN_POINT('',(7.69530597395063,9.47892961082505,0.));
#1615=CARTESIAN_POINT('',(7.69530597395063,1.62,11.2916139567439));
#1616=CARTESIAN_POINT('',(7.69530597395063,1.62,11.2916139567439));
#1617=CARTESIAN_POINT('',(7.69530597395063,1.62,11.2916139567439));
#1618=CARTESIAN_POINT('Origin',(7.84530597395063,1.62,11.2916139751863));
#1619=CARTESIAN_POINT('',(7.84530597395063,9.46618179413188,11.2916139751863));
#1620=CARTESIAN_POINT('Origin',(13.8002879198368,80.425669765381,11.2916147073474));
#1621=CARTESIAN_POINT('',(7.84530597395063,1.62,11.2916139751863));
#1622=CARTESIAN_POINT('',(7.84530597395063,1.62,11.2916139751863));
#1623=CARTESIAN_POINT('',(7.84530597395063,1.62,11.2916139751863));
#1624=CARTESIAN_POINT('Origin',(8.4999998100102,1.62,11.2916139751863));
#1625=CARTESIAN_POINT('',(8.4999998100102,9.41427850263704,11.2916139751863));
#1626=CARTESIAN_POINT('Origin',(13.8002879198368,80.425669765381,11.2916139751863));
#1627=CARTESIAN_POINT('',(8.4999998100102,1.62,11.2916139751863));
#1628=CARTESIAN_POINT('',(8.4999998100102,1.62,11.2916139751863));
#1629=CARTESIAN_POINT('',(7.84530597395063,1.62,11.2916139751863));
#1630=CARTESIAN_POINT('Origin',(8.49999981001019,1.62,9.44161395674394));
#1631=CARTESIAN_POINT('',(8.49999981001019,9.41427850263704,9.44161395674394));
#1632=CARTESIAN_POINT('',(8.49999981001018,9.41427850263704,0.));
#1633=CARTESIAN_POINT('',(8.49999981001019,1.62,9.44161395674394));
#1634=CARTESIAN_POINT('',(8.49999981001019,1.62,9.44161395674394));
#1635=CARTESIAN_POINT('',(8.4999998100102,1.62,11.2916139751863));
#1636=CARTESIAN_POINT('Origin',(10.3453059739506,1.62,9.44161395674394));
#1637=CARTESIAN_POINT('',(10.3453059739506,9.30061199478035,9.44161395674394));
#1638=CARTESIAN_POINT('Origin',(13.8002879198368,80.425669765381,9.44161395674394));
#1639=CARTESIAN_POINT('',(10.3453059739506,1.62,9.44161395674394));
#1640=CARTESIAN_POINT('',(10.3453059739506,1.62,9.44161395674394));
#1641=CARTESIAN_POINT('',(8.49999981001019,1.62,9.44161395674394));
#1642=CARTESIAN_POINT('Origin',(10.3453059739506,1.62,8.64161395674394));
#1643=CARTESIAN_POINT('',(10.3453059739506,9.30061199478035,8.64161395674394));
#1644=CARTESIAN_POINT('',(10.3453059739506,9.30061199478035,0.));
#1645=CARTESIAN_POINT('',(10.3453059739506,1.62,8.64161395674394));
#1646=CARTESIAN_POINT('',(10.3453059739506,1.62,8.64161395674394));
#1647=CARTESIAN_POINT('',(10.3453059739506,1.62,9.44161395674394));
#1648=CARTESIAN_POINT('Origin',(8.49530597395063,1.62,8.64161395674394));
#1649=CARTESIAN_POINT('',(8.49530597395063,9.41462900641521,8.64161395674394));
#1650=CARTESIAN_POINT('Origin',(13.8002879198368,80.425669765381,8.64161395674394));
#1651=CARTESIAN_POINT('',(8.49530597395063,1.62,8.64161395674394));
#1652=CARTESIAN_POINT('',(8.49530597395063,1.62,8.64161395674394));
#1653=CARTESIAN_POINT('',(10.3453059739506,1.62,8.64161395674394));
#1654=CARTESIAN_POINT('Origin',(8.49530597395063,1.62,6.79161395674393));
#1655=CARTESIAN_POINT('',(8.49530597395063,9.41462900641521,6.79161395674393));
#1656=CARTESIAN_POINT('',(8.49530597395064,9.41462900641521,0.));
#1657=CARTESIAN_POINT('',(8.49530597395063,1.62,6.79161395674393));
#1658=CARTESIAN_POINT('',(8.49530597395063,1.62,6.79161395674393));
#1659=CARTESIAN_POINT('',(8.49530597395063,1.62,8.64161395674394));
#1660=CARTESIAN_POINT('Origin',(7.8453059739476,1.62,6.79161395674393));
#1661=CARTESIAN_POINT('',(7.8453059739476,9.46618179413213,6.79161395674393));
#1662=CARTESIAN_POINT('Origin',(13.8002879198368,80.425669765381,6.79161395674393));
#1663=CARTESIAN_POINT('',(7.8453059739476,1.62,6.79161395674393));
#1664=CARTESIAN_POINT('',(7.8453059739476,1.62,6.79161395674393));
#1665=CARTESIAN_POINT('',(8.49530597395063,1.62,6.79161395674393));
#1666=CARTESIAN_POINT('Origin',(7.69530598388058,1.62,6.79155937456891));
#1667=CARTESIAN_POINT('',(7.69530598388058,9.47892960997057,6.79155937456891));
#1668=CARTESIAN_POINT('Origin',(13.8002879198368,80.425669765381,6.79378086266629));
#1669=CARTESIAN_POINT('',(7.69530598388058,1.62,6.79155937456891));
#1670=CARTESIAN_POINT('',(7.69530598388058,1.62,6.79155937456891));
#1671=CARTESIAN_POINT('',(7.8453059739476,1.62,6.79161395674393));
#1672=CARTESIAN_POINT('Origin',(7.69463278381593,1.62,8.64161395674393));
#1673=CARTESIAN_POINT('',(7.69496938384826,9.47895857608305,7.71658666565642));
#1674=CARTESIAN_POINT('',(7.69530598388058,1.62,6.79155937456891));
#1675=CARTESIAN_POINT('Origin',(8.09530597394757,1.62,9.04161395674441));
#1676=CARTESIAN_POINT('Origin',(8.99974564758494,5.41185162081258,1.87118773217938));
#1677=CARTESIAN_POINT('',(16.9449937051502,-0.0186641668487997,1.012465125788));
#1678=CARTESIAN_POINT('',(4.49688690962744,-0.00495312356215083,1.012465125788));
#1679=CARTESIAN_POINT('',(15.8091614405893,3.37234632838126,1.54934994960915));
#1680=CARTESIAN_POINT('Origin',(17.0517677941697,-0.337436636852332,0.));
#1681=CARTESIAN_POINT('',(16.9449937051502,-0.0186641668487997,16.987534874212));
#1682=CARTESIAN_POINT('',(16.9449937051502,-0.0186641668487988,0.));
#1683=CARTESIAN_POINT('',(15.3894804106921,4.62529786130894,16.2522753582575));
#1684=CARTESIAN_POINT('Origin',(8.99974564758494,5.41185162081258,16.1288122678206));
#1685=CARTESIAN_POINT('',(8.34530597394763,8.,15.7190042531946));
#1686=CARTESIAN_POINT('',(8.34530597394763,7.18461713447688,15.8481481336617));
#1687=CARTESIAN_POINT('',(4.49688690962744,-0.00495312356215083,16.987534874212));
#1688=CARTESIAN_POINT('',(7.84530597394757,8.,15.7190914798964));
#1689=CARTESIAN_POINT('',(7.84530597394757,7.51740131741725,15.7955275557723));
#1690=CARTESIAN_POINT('',(8.54766766795203,8.,15.7189689505083));
#1691=CARTESIAN_POINT('Origin',(13.8002879198368,80.425669765381,0.));
#1692=CARTESIAN_POINT('Origin',(1.88053736928959,10.8301269333003,15.8793633310846));
#1693=CARTESIAN_POINT('',(1.94806283213798,11.2243861270639,15.8793633310846));
#1694=CARTESIAN_POINT('',(1.8806062915267,10.892700681359,16.2744386673227));
#1695=CARTESIAN_POINT('Origin',(1.88053736928959,10.8301269333003,15.8793633310846));
#1696=CARTESIAN_POINT('',(1.48420530207186,10.8841722151937,15.8793633310846));
#1697=CARTESIAN_POINT('Origin',(1.88053736928959,10.8301269333003,15.8793633310846));
#1698=CARTESIAN_POINT('Origin',(1.88053736928958,10.8301269333003,15.8793633310846));
#1699=CARTESIAN_POINT('Origin',(1.88053736928957,10.8301269333003,2.12063666891538));
#1700=CARTESIAN_POINT('',(1.94806283213798,11.2243861270639,2.12063666891538));
#1701=CARTESIAN_POINT('',(1.48420530207186,10.8841722151937,2.12063666891538));
#1702=CARTESIAN_POINT('Origin',(1.88053736928959,10.8301269333003,2.12063666891538));
#1703=CARTESIAN_POINT('',(1.8806062915267,10.892700681359,1.72556133267732));
#1704=CARTESIAN_POINT('Origin',(1.88053736928957,10.8301269333003,2.12063666891538));
#1705=CARTESIAN_POINT('Origin',(1.88053736928958,10.8301269333003,2.12063666891538));
#1706=CARTESIAN_POINT('Origin',(14.2827957795483,9.81839520075444,16.0374421819059));
#1707=CARTESIAN_POINT('',(14.6620842943444,9.94543937631472,16.0374421819059));
#1708=CARTESIAN_POINT('',(14.2828647017854,9.88096894881311,16.432517518144));
#1709=CARTESIAN_POINT('Origin',(14.2827957795483,9.81839520075444,16.0374421819059));
#1710=CARTESIAN_POINT('',(14.2800623694474,10.2183858612319,16.0374421819059));
#1711=CARTESIAN_POINT('Origin',(14.2827957795483,9.81839520075444,16.0374421819059));
#1712=CARTESIAN_POINT('Origin',(14.2827957795483,9.81839520075443,16.0374421819059));
#1713=CARTESIAN_POINT('Origin',(14.2827957795483,9.81839520075442,1.96255781809407));
#1714=CARTESIAN_POINT('',(14.6620842943444,9.94543937631472,1.96255781809407));
#1715=CARTESIAN_POINT('',(14.2800623694474,10.2183858612319,1.96255781809407));
#1716=CARTESIAN_POINT('Origin',(14.2827957795483,9.81839520075444,1.96255781809407));
#1717=CARTESIAN_POINT('',(14.2828647017854,9.88096894881313,1.56748248185601));
#1718=CARTESIAN_POINT('Origin',(14.2827957795483,9.81839520075442,1.96255781809407));
#1719=CARTESIAN_POINT('Origin',(14.2827957795483,9.81839520075443,1.96255781809407));
#1720=CARTESIAN_POINT('Origin',(16.3511788041375,3.64326814777465,0.984875205617422));
#1721=CARTESIAN_POINT('',(17.9999890811599,-0.0198261979516245,0.38479807370615));
#1722=CARTESIAN_POINT('',(17.5990269362747,-0.019384555747301,0.));
#1723=CARTESIAN_POINT('Origin',(17.577990930756,-0.0193613855104946,0.404986050315201));
#1724=CARTESIAN_POINT('',(16.3512477263746,3.70584189583334,0.589799869379366));
#1725=CARTESIAN_POINT('',(16.7304673189335,3.77031232333493,0.984875205617422));
#1726=CARTESIAN_POINT('Ctrl Pts',(1.94806283213797,11.2243861270639,2.12063666891538));
#1727=CARTESIAN_POINT('Ctrl Pts',(6.01847094009586,10.5272401991581,2.01030473371132));
#1728=CARTESIAN_POINT('Ctrl Pts',(10.1504814915153,10.1901656071122,1.95733818294446));
#1729=CARTESIAN_POINT('Ctrl Pts',(14.2800623694474,10.2183858612319,1.96255781809407));
#1730=CARTESIAN_POINT('Ctrl Pts',(1.94559198294848,11.2248093137335,2.02627262205838));
#1731=CARTESIAN_POINT('Ctrl Pts',(6.01680030631998,10.5273740795441,1.91602233385197));
#1732=CARTESIAN_POINT('Ctrl Pts',(10.1497530417055,10.1901535386809,1.86309399620348));
#1733=CARTESIAN_POINT('Ctrl Pts',(14.2801808150469,10.2183866706518,1.86830978049825));
#1734=CARTESIAN_POINT('Ctrl Pts',(1.9288770373374,11.1568279267787,1.8381012100386));
#1735=CARTESIAN_POINT('Ctrl Pts',(6.00586045905352,10.4582720718271,1.72800861045312));
#1736=CARTESIAN_POINT('Ctrl Pts',(10.1445789693113,10.1205131924869,1.67515765069909));
#1737=CARTESIAN_POINT('Ctrl Pts',(14.2808926066233,10.1487926742755,1.68036599672889));
#1738=CARTESIAN_POINT('Ctrl Pts',(1.89673226131967,10.984564877855,1.74011399642955));
#1739=CARTESIAN_POINT('Ctrl Pts',(5.98477192068083,10.2842938094542,1.62991768905622));
#1740=CARTESIAN_POINT('Ctrl Pts',(10.1347201986672,9.94570693246508,1.57701242447511));
#1741=CARTESIAN_POINT('Ctrl Pts',(14.2822100553244,9.97405448359341,1.58222565903588));
#1742=CARTESIAN_POINT('Ctrl Pts',(1.88060629152669,10.892700681359,1.72556133267733));
#1743=CARTESIAN_POINT('Ctrl Pts',(5.97420466033754,10.1915829168481,1.61522939747327));
#1744=CARTESIAN_POINT('Ctrl Pts',(10.1297564390721,9.85258791596136,1.5622628467064));
#1745=CARTESIAN_POINT('Ctrl Pts',(14.2828647017854,9.88096894881313,1.56748248185601));
#1746=CARTESIAN_POINT('Origin',(13.8003568420739,80.4882435134397,12.7504851877873));
#1747=CARTESIAN_POINT('Origin',(13.8002879198368,80.425669765381,13.1455605240253));
#1748=CARTESIAN_POINT('Origin',(14.2827957795483,9.81839520075444,0.));
#1749=CARTESIAN_POINT('',(14.6620842943444,9.94543937631472,0.));
#1750=CARTESIAN_POINT('',(14.2800623694474,10.2183858612319,0.));
#1751=CARTESIAN_POINT('Ctrl Pts',(14.2800623694474,10.2183858612319,16.0374421819059));
#1752=CARTESIAN_POINT('Ctrl Pts',(10.1504814915153,10.1901656071122,16.0426618170555));
#1753=CARTESIAN_POINT('Ctrl Pts',(6.01847094009587,10.5272401991581,15.9896952662887));
#1754=CARTESIAN_POINT('Ctrl Pts',(1.94806283213798,11.2243861270639,15.8793633310846));
#1755=CARTESIAN_POINT('Ctrl Pts',(14.2801808150469,10.2183866706518,16.1316902195017));
#1756=CARTESIAN_POINT('Ctrl Pts',(10.1497530417055,10.1901535386809,16.1369060037965));
#1757=CARTESIAN_POINT('Ctrl Pts',(6.01680030631999,10.5273740795441,16.083977666148));
#1758=CARTESIAN_POINT('Ctrl Pts',(1.94559198294848,11.2248093137335,15.9737273779416));
#1759=CARTESIAN_POINT('Ctrl Pts',(14.280892861217,10.1487484759187,16.319596253543));
#1760=CARTESIAN_POINT('Ctrl Pts',(10.144579223905,10.1204689941301,16.3248045995728));
#1761=CARTESIAN_POINT('Ctrl Pts',(6.00585395469439,10.4582281124729,16.2719533729));
#1762=CARTESIAN_POINT('Ctrl Pts',(1.92887053297827,11.1567839674245,16.1618607733145));
#1763=CARTESIAN_POINT('Ctrl Pts',(14.2822100553244,9.97405448359341,16.4177743409641));
#1764=CARTESIAN_POINT('Ctrl Pts',(10.1347201986672,9.94570693246508,16.4229875755249));
#1765=CARTESIAN_POINT('Ctrl Pts',(5.98477192068084,10.2842938094542,16.3700823109438));
#1766=CARTESIAN_POINT('Ctrl Pts',(1.89673226131967,10.984564877855,16.2598860035705));
#1767=CARTESIAN_POINT('Ctrl Pts',(14.2828647017854,9.88096894881313,16.432517518144));
#1768=CARTESIAN_POINT('Ctrl Pts',(10.1297564390721,9.85258791596136,16.4377371532936));
#1769=CARTESIAN_POINT('Ctrl Pts',(5.97420466033755,10.1915829168481,16.3847706025267));
#1770=CARTESIAN_POINT('Ctrl Pts',(1.8806062915267,10.892700681359,16.2744386673227));
#1771=CARTESIAN_POINT('Origin',(13.8003568420739,80.4882435134397,5.24951481221272));
#1772=CARTESIAN_POINT('Origin',(13.8002879198368,80.425669765381,4.85443947597466));
#1773=CARTESIAN_POINT('Origin',(15.9314977742403,4.89621968070232,16.8167501022492));
#1774=CARTESIAN_POINT('',(17.5990269362747,-0.019384555747301,18.));
#1775=CARTESIAN_POINT('',(17.9999890811599,-0.0198261979516245,17.6152019262938));
#1776=CARTESIAN_POINT('Origin',(17.577990930756,-0.0193613855104946,17.5950139496848));
#1777=CARTESIAN_POINT('',(16.3107862890363,5.0232638562626,16.8167501022492));
#1778=CARTESIAN_POINT('',(15.9315666964774,4.95879342876101,17.2118254384873));
#1779=CARTESIAN_POINT('Origin',(1.59283549454012,8.72031318513761,1.78642501135553));
#1780=CARTESIAN_POINT('',(0.395178661529844,-0.000435271951245198,0.));
#1781=CARTESIAN_POINT('',(0.,0.,0.396495265260934));
#1782=CARTESIAN_POINT('Origin',(0.403641252049997,-0.000444593123278825,
0.404986050315201));
#1783=CARTESIAN_POINT('',(1.1965034273224,8.77435846703094,1.78642501135553));
#1784=CARTESIAN_POINT('',(1.59290441677724,8.78288693319631,1.39134967511747));
#1785=CARTESIAN_POINT('Origin',(1.88053736928959,10.8301269333003,0.));
#1786=CARTESIAN_POINT('',(1.94806283213798,11.2243861270639,0.));
#1787=CARTESIAN_POINT('',(1.48420530207186,10.8841722151937,0.));
#1788=CARTESIAN_POINT('Origin',(1.77910758799562,10.0863085371446,15.9971902147701));
#1789=CARTESIAN_POINT('',(0.,0.,17.6035047347391));
#1790=CARTESIAN_POINT('',(0.395178661529845,-0.000435271951245198,18.));
#1791=CARTESIAN_POINT('Origin',(0.403641252049997,-0.000444593123278825,
17.5950139496848));
#1792=CARTESIAN_POINT('',(1.77917651023274,10.1488822852033,16.3922655510081));
#1793=CARTESIAN_POINT('',(1.3827755207779,10.1403538190379,15.9971902147701));
#1794=CARTESIAN_POINT('Origin',(8.99991795317773,5.56828599095932,17.1165006084158));
#1795=CARTESIAN_POINT('',(0.,0.,18.));
#1796=CARTESIAN_POINT('Origin',(1.54029053395977,11.295463915705,0.));
#1797=CARTESIAN_POINT('',(0.,0.,0.));
#1798=CARTESIAN_POINT('Origin',(0.,0.,0.));
#1799=CARTESIAN_POINT('',(0.,0.,0.));
#1800=CARTESIAN_POINT('',(17.9999890811599,-0.0198261979516245,0.));
#1801=CARTESIAN_POINT('Origin',(13.8002879198368,80.425669765381,0.));
#1802=CARTESIAN_POINT('Origin',(8.99991795317773,5.56828599095932,0.883499391584247));
#1803=CARTESIAN_POINT('Origin',(17.9999890811599,-0.0198261979516245,0.));
#1804=CARTESIAN_POINT('Origin',(8.0953059739476,8.,13.6828210410428));
#1805=CARTESIAN_POINT('',(7.84530597394757,8.,12.6059517952769));
#1806=CARTESIAN_POINT('',(8.34530597394763,8.,14.7596902868087));
#1807=CARTESIAN_POINT('Origin',(7.84530597394757,9.,11.529082549511));
#1808=CARTESIAN_POINT('Origin',(8.34530597394763,9.,15.8365595325747));
#1809=CARTESIAN_POINT('',(0.,0.,0.));
#1810=CARTESIAN_POINT('',(0.,0.,0.));
#1811=UNCERTAINTY_MEASURE_WITH_UNIT(LENGTH_MEASURE(0.01),#1819,
'DISTANCE_ACCURACY_VALUE',
'Maximum model space distance between geometric entities at asserted c
onnectivities');
#1812=UNCERTAINTY_MEASURE_WITH_UNIT(LENGTH_MEASURE(0.01),#1819,
'DISTANCE_ACCURACY_VALUE',
'Maximum model space distance between geometric entities at asserted c
onnectivities');
#1813=UNCERTAINTY_MEASURE_WITH_UNIT(LENGTH_MEASURE(0.01),#1819,
'DISTANCE_ACCURACY_VALUE',
'Maximum model space distance between geometric entities at asserted c
onnectivities');
#1814=UNCERTAINTY_MEASURE_WITH_UNIT(LENGTH_MEASURE(0.01),#1819,
'DISTANCE_ACCURACY_VALUE',
'Maximum model space distance between geometric entities at asserted c
onnectivities');
#1815=(
GEOMETRIC_REPRESENTATION_CONTEXT(3)
GLOBAL_UNCERTAINTY_ASSIGNED_CONTEXT((#1811))
GLOBAL_UNIT_ASSIGNED_CONTEXT((#1819,#1821,#1822))
REPRESENTATION_CONTEXT('','3D')
);
#1816=(
GEOMETRIC_REPRESENTATION_CONTEXT(3)
GLOBAL_UNCERTAINTY_ASSIGNED_CONTEXT((#1812))
GLOBAL_UNIT_ASSIGNED_CONTEXT((#1819,#1821,#1822))
REPRESENTATION_CONTEXT('','3D')
);
#1817=(
GEOMETRIC_REPRESENTATION_CONTEXT(3)
GLOBAL_UNCERTAINTY_ASSIGNED_CONTEXT((#1813))
GLOBAL_UNIT_ASSIGNED_CONTEXT((#1819,#1821,#1822))
REPRESENTATION_CONTEXT('','3D')
);
#1818=(
GEOMETRIC_REPRESENTATION_CONTEXT(3)
GLOBAL_UNCERTAINTY_ASSIGNED_CONTEXT((#1814))
GLOBAL_UNIT_ASSIGNED_CONTEXT((#1819,#1821,#1822))
REPRESENTATION_CONTEXT('','3D')
);
#1819=(
LENGTH_UNIT()
NAMED_UNIT(*)
SI_UNIT(.MILLI.,.METRE.)
);
#1820=(
LENGTH_UNIT()
NAMED_UNIT(*)
SI_UNIT($,.METRE.)
);
#1821=(
NAMED_UNIT(*)
PLANE_ANGLE_UNIT()
SI_UNIT($,.RADIAN.)
);
#1822=(
NAMED_UNIT(*)
SI_UNIT($,.STERADIAN.)
SOLID_ANGLE_UNIT()
);
#1823=SHAPE_DEFINITION_REPRESENTATION(#1826,#1831);
#1824=SHAPE_DEFINITION_REPRESENTATION(#1827,#1832);
#1825=SHAPE_DEFINITION_REPRESENTATION(#1828,#1833);
#1826=PRODUCT_DEFINITION_SHAPE('',$,#1835);
#1827=PRODUCT_DEFINITION_SHAPE('',$,#1836);
#1828=PRODUCT_DEFINITION_SHAPE('',$,#1837);
#1829=PRODUCT_DEFINITION_SHAPE($,$,#17);
#1830=PRODUCT_DEFINITION_SHAPE($,$,#18);
#1831=SHAPE_REPRESENTATION('',(#1038,#1139,#1140),#1815);
#1832=SHAPE_REPRESENTATION('',(#1039),#1816);
#1833=SHAPE_REPRESENTATION('',(#1043),#1817);
#1834=PRODUCT_DEFINITION_CONTEXT('part definition',#1845,'design');
#1835=PRODUCT_DEFINITION('Keycap+R4+v6','Keycap+R4+v6 v2',#1838,#1834);
#1836=PRODUCT_DEFINITION('Ring','Ring',#1839,#1834);
#1837=PRODUCT_DEFINITION('Cap','Cap',#1840,#1834);
#1838=PRODUCT_DEFINITION_FORMATION('',$,#1847);
#1839=PRODUCT_DEFINITION_FORMATION('',$,#1848);
#1840=PRODUCT_DEFINITION_FORMATION('',$,#1849);
#1841=PRODUCT_RELATED_PRODUCT_CATEGORY('Keycap+R4+v6 v2',
'Keycap+R4+v6 v2',(#1847));
#1842=PRODUCT_RELATED_PRODUCT_CATEGORY('Ring','Ring',(#1848));
#1843=PRODUCT_RELATED_PRODUCT_CATEGORY('Cap','Cap',(#1849));
#1844=APPLICATION_PROTOCOL_DEFINITION('international standard',
'automotive_design',2009,#1845);
#1845=APPLICATION_CONTEXT(
'Core Data for Automotive Mechanical Design Process');
#1846=PRODUCT_CONTEXT('part definition',#1845,'mechanical');
#1847=PRODUCT('Keycap+R4+v6','Keycap+R4+v6 v2',$,(#1846));
#1848=PRODUCT('Ring','Ring',$,(#1846));
#1849=PRODUCT('Cap','Cap',$,(#1846));
#1850=PRESENTATION_STYLE_ASSIGNMENT((#1852));
#1851=PRESENTATION_STYLE_ASSIGNMENT((#1853));
#1852=SURFACE_STYLE_USAGE(.BOTH.,#1854);
#1853=SURFACE_STYLE_USAGE(.BOTH.,#1855);
#1854=SURFACE_SIDE_STYLE('',(#1856));
#1855=SURFACE_SIDE_STYLE('',(#1857));
#1856=SURFACE_STYLE_FILL_AREA(#1858);
#1857=SURFACE_STYLE_FILL_AREA(#1859);
#1858=FILL_AREA_STYLE('Steel - Satin',(#1860));
#1859=FILL_AREA_STYLE('Plastic - Matte (Red)',(#1861));
#1860=FILL_AREA_STYLE_COLOUR('Steel - Satin',#1862);
#1861=FILL_AREA_STYLE_COLOUR('Plastic - Matte (Red)',#1863);
#1862=COLOUR_RGB('Steel - Satin',0.627450980392157,0.627450980392157,0.627450980392157);
#1863=COLOUR_RGB('Plastic - Matte (Red)',0.768627450980392,0.207843137254902,
0.152941176470588);
ENDSEC;
END-ISO-10303-21;
