M48
; DRILL file {KiCad 8.0.6} date 2025-05-30T09:44:12-0500
; FORMAT={-:-/ absolute / inch / decimal}
; #@! TF.CreationDate,2025-05-30T09:44:12-05:00
; #@! TF.GenerationSoftware,Kicad,Pcbnew,8.0.6
; #@! TF.FileFunction,Plated,1,2,PTH
FMAT,2
INCH
; #@! TA.AperFunction,Plated,PTH,ViaDrill
T1C0.0118
; #@! TA.AperFunction,Plated,PTH,ComponentDrill
T2C0.0350
; #@! TA.AperFunction,Plated,PTH,ComponentDrill
T3C0.0394
; #@! TA.AperFunction,Plated,PTH,ComponentDrill
T4C0.0591
%
G90
G05
T1
X4.9764Y-4.7205
X5.1562Y-4.5
T2
X4.8724Y-3.622
X4.8724Y-3.722
X4.8724Y-3.822
X4.8724Y-3.922
X4.8724Y-4.022
X4.8724Y-4.122
X4.8724Y-4.222
X5.4724Y-3.622
X5.4724Y-3.722
X5.4724Y-3.822
X5.4724Y-3.922
X5.4724Y-4.022
X5.4724Y-4.122
X5.4724Y-4.222
T3
X3.5583Y-3.7953
X3.6583Y-3.7953
X3.7583Y-3.7953
X3.8583Y-3.7953
X4.3031Y-3.8354
X4.3031Y-4.4062
X4.3031Y-4.5714
X4.3031Y-5.1422
X4.4016Y-3.8354
X4.4016Y-4.5714
X4.5Y-3.8354
X4.5Y-4.4062
X4.5Y-4.5714
X4.5Y-5.1422
T4
X5.85Y-4.0138
X5.85Y-4.7638
X6.1Y-3.9138
X6.1Y-4.6638
X6.6Y-4.0138
X6.6Y-4.7638
X6.85Y-3.9138
X6.85Y-4.6638
T4
G00X4.1811Y-4.1051
M15
G01X4.1811Y-4.1562
M16
G05
G00X4.1811Y-4.841
M15
G01X4.1811Y-4.8922
M16
G05
G00X4.622Y-4.1051
M15
G01X4.622Y-4.1562
M16
G05
G00X4.622Y-4.841
M15
G01X4.622Y-4.8922
M16
G05
M30
