%TF.GenerationSoftware,KiCad,Pcbnew,8.0.6*%
%TF.CreationDate,2025-05-30T09:43:58-05:00*%
%TF.ProjectId,HackPad,4861636b-5061-4642-9e6b-696361645f70,rev?*%
%TF.SameCoordinates,Original*%
%TF.FileFunction,Copper,L2,Bot*%
%TF.FilePolarity,Positive*%
%FSLAX46Y46*%
G04 Gerber Fmt 4.6, Leading zero omitted, Abs format (unit mm)*
G04 Created by KiCad (PCBNEW 8.0.6) date 2025-05-30 09:43:58*
%MOMM*%
%LPD*%
G01*
G04 APERTURE LIST*
%TA.AperFunction,ComponentPad*%
%ADD10C,2.200000*%
%TD*%
%TA.AperFunction,ComponentPad*%
%ADD11R,2.000000X2.000000*%
%TD*%
%TA.AperFunction,ComponentPad*%
%ADD12C,2.000000*%
%TD*%
%TA.AperFunction,ComponentPad*%
%ADD13R,2.000000X3.200000*%
%TD*%
%TA.AperFunction,ComponentPad*%
%ADD14C,1.524000*%
%TD*%
%TA.AperFunction,ComponentPad*%
%ADD15R,1.700000X1.700000*%
%TD*%
%TA.AperFunction,ComponentPad*%
%ADD16O,1.700000X1.700000*%
%TD*%
%TA.AperFunction,ViaPad*%
%ADD17C,0.600000*%
%TD*%
%TA.AperFunction,Conductor*%
%ADD18C,0.200000*%
%TD*%
G04 APERTURE END LIST*
D10*
%TO.P,SW3,1,1*%
%TO.N,GND*%
X173990000Y-99410625D03*
%TO.P,SW3,2,2*%
%TO.N,Net-(U1-GPIO2{slash}SCK)*%
X167640000Y-101950625D03*
%TD*%
%TO.P,SW4,1,1*%
%TO.N,GND*%
X154940000Y-99410625D03*
%TO.P,SW4,2,2*%
%TO.N,Net-(U1-GPIO4{slash}MISO)*%
X148590000Y-101950625D03*
%TD*%
D11*
%TO.P,SW6,A,A*%
%TO.N,Switch B2*%
X114300000Y-97418750D03*
D12*
%TO.P,SW6,B,B*%
%TO.N,Switch B1*%
X109300000Y-97418750D03*
%TO.P,SW6,C,C*%
%TO.N,GND*%
X111800000Y-97418750D03*
D13*
%TO.P,SW6,MP*%
%TO.N,N/C*%
X117400000Y-104918750D03*
X106200000Y-104918750D03*
D12*
%TO.P,SW6,S1,S1*%
%TO.N,GND*%
X109300000Y-111918750D03*
%TO.P,SW6,S2,S2*%
X114300000Y-111918750D03*
%TD*%
D14*
%TO.P,U1,1,GPIO26/ADC0/A0*%
%TO.N,Switch A1*%
X123760000Y-92000000D03*
%TO.P,U1,2,GPIO27/ADC1/A1*%
%TO.N,Switch A2*%
X123760000Y-94540000D03*
%TO.P,U1,3,GPIO28/ADC2/A2*%
%TO.N,Switch B1*%
X123760000Y-97080000D03*
%TO.P,U1,4,GPIO29/ADC3/A3*%
%TO.N,Switch B2*%
X123760000Y-99620000D03*
%TO.P,U1,5,GPIO6/SDA*%
%TO.N,SDA*%
X123760000Y-102160000D03*
%TO.P,U1,6,GPIO7/SCL*%
%TO.N,SCL*%
X123760000Y-104700000D03*
%TO.P,U1,7,GPIO0/TX*%
%TO.N,Net-(U1-GPIO0{slash}TX)*%
X123760000Y-107240000D03*
%TO.P,U1,8,GPIO1/RX*%
%TO.N,Net-(U1-GPIO1{slash}RX)*%
X139000000Y-107240000D03*
%TO.P,U1,9,GPIO2/SCK*%
%TO.N,Net-(U1-GPIO2{slash}SCK)*%
X139000000Y-104700000D03*
%TO.P,U1,10,GPIO4/MISO*%
%TO.N,Net-(U1-GPIO4{slash}MISO)*%
X139000000Y-102160000D03*
%TO.P,U1,11,GPIO3/MOSI*%
%TO.N,Net-(D1-DIN)*%
X139000000Y-99620000D03*
%TO.P,U1,12,3V3*%
%TO.N,unconnected-(U1-3V3-Pad12)*%
X139000000Y-97080000D03*
%TO.P,U1,13,GND*%
%TO.N,GND*%
X139000000Y-94540000D03*
%TO.P,U1,14,VBUS*%
%TO.N,+5V*%
X139000000Y-92000000D03*
%TD*%
D11*
%TO.P,SW7,A,A*%
%TO.N,Switch A2*%
X114300000Y-116112500D03*
D12*
%TO.P,SW7,B,B*%
%TO.N,Switch A1*%
X109300000Y-116112500D03*
%TO.P,SW7,C,C*%
%TO.N,GND*%
X111800000Y-116112500D03*
D13*
%TO.P,SW7,MP*%
%TO.N,N/C*%
X117400000Y-123612500D03*
X106200000Y-123612500D03*
D12*
%TO.P,SW7,S1,S1*%
%TO.N,GND*%
X109300000Y-130612500D03*
%TO.P,SW7,S2,S2*%
X114300000Y-130612500D03*
%TD*%
D15*
%TO.P,J1,1,Pin_1*%
%TO.N,GND*%
X90380000Y-96400625D03*
D16*
%TO.P,J1,2,Pin_2*%
%TO.N,+5V*%
X92920000Y-96400625D03*
%TO.P,J1,3,Pin_3*%
%TO.N,SCL*%
X95460000Y-96400625D03*
%TO.P,J1,4,Pin_4*%
%TO.N,SDA*%
X98000000Y-96400625D03*
%TD*%
D10*
%TO.P,SW1,1,1*%
%TO.N,GND*%
X154940000Y-118460625D03*
%TO.P,SW1,2,2*%
%TO.N,Net-(U1-GPIO0{slash}TX)*%
X148590000Y-121000625D03*
%TD*%
%TO.P,SW2,1,1*%
%TO.N,GND*%
X173990000Y-118460625D03*
%TO.P,SW2,2,2*%
%TO.N,Net-(U1-GPIO1{slash}RX)*%
X167640000Y-121000625D03*
%TD*%
D17*
%TO.N,+5V*%
X126400000Y-119900000D03*
%TO.N,Net-(D1-DIN)*%
X130968750Y-114300000D03*
%TD*%
D18*
%TO.N,+5V*%
X125500000Y-108133267D02*
X125500000Y-119000000D01*
X129400000Y-101600000D02*
X129400000Y-104233267D01*
X125500000Y-119000000D02*
X126400000Y-119900000D01*
X139000000Y-92000000D02*
X129400000Y-101600000D01*
X129400000Y-104233267D02*
X125500000Y-108133267D01*
X92920000Y-96400625D02*
X98382625Y-90938000D01*
X137938000Y-90938000D02*
X139000000Y-92000000D01*
X98382625Y-90938000D02*
X137938000Y-90938000D01*
%TO.N,Net-(D1-DIN)*%
X130968750Y-107651250D02*
X139000000Y-99620000D01*
X130968750Y-114300000D02*
X130968750Y-107651250D01*
%TO.N,Net-(U1-GPIO1{slash}RX)*%
X152760625Y-121000625D02*
X139000000Y-107240000D01*
X167640000Y-121000625D02*
X152760625Y-121000625D01*
%TO.N,SDA*%
X103759375Y-102160000D02*
X98000000Y-96400625D01*
X123760000Y-102160000D02*
X103759375Y-102160000D01*
%TO.N,SCL*%
X102059375Y-103000000D02*
X95460000Y-96400625D01*
X123760000Y-104700000D02*
X122060000Y-103000000D01*
X122060000Y-103000000D02*
X102059375Y-103000000D01*
%TO.N,Switch B1*%
X110600000Y-96118750D02*
X122798750Y-96118750D01*
X109300000Y-97418750D02*
X110600000Y-96118750D01*
X122798750Y-96118750D02*
X123760000Y-97080000D01*
%TO.N,Switch A2*%
X116389395Y-116112500D02*
X128600000Y-103901895D01*
X128600000Y-99380000D02*
X123760000Y-94540000D01*
X128600000Y-103901895D02*
X128600000Y-99380000D01*
X114300000Y-116112500D02*
X116389395Y-116112500D01*
%TO.N,Switch A1*%
X115655081Y-117412500D02*
X129000000Y-104067581D01*
X129000000Y-104067581D02*
X129000000Y-97240000D01*
X109300000Y-116112500D02*
X110600000Y-117412500D01*
X129000000Y-97240000D02*
X123760000Y-92000000D01*
X110600000Y-117412500D02*
X115655081Y-117412500D01*
%TD*%
M02*
